<svg width="139" height="93" viewBox="0 0 139 93" fill="none" xmlns="http://www.w3.org/2000/svg">
<path d="M26.6002 17.9998C15.1002 11.7998 6.90019 4.5998 8.30019 1.8998C9.70019 -0.800195 20.1002 1.89982 31.6002 8.09982C43.1002 14.2998 51.3002 21.4998 49.9002 24.1998C48.5002 26.8998 38.1002 24.0998 26.6002 17.9998Z" fill="black" stroke="black" stroke-width="0.7119" stroke-miterlimit="10"/>
<path d="M108.5 18.4997C96.8999 24.4997 86.4999 27.1997 85.0999 24.3997C83.6999 21.5997 91.9999 14.4997 103.5 8.49967C115.1 2.49967 125.5 -0.200321 126.9 2.59968C128.3 5.29968 120.1 12.3997 108.5 18.4997Z" fill="black" stroke="black" stroke-width="0.7119" stroke-miterlimit="10"/>
<path opacity="0.96" d="M43.2001 63.2997C41.6001 75.2997 30.8001 83.6997 19.1001 82.0997C7.40007 80.4997 -0.799926 69.3997 0.800074 57.3997C2.40007 45.3997 13.2001 36.9997 24.9001 38.5997C36.6001 40.1997 44.8001 51.2997 43.2001 63.2997Z" fill="#FF7D00"/>
<path opacity="0.96" d="M138.2 61.3998C136.6 73.3998 125.8 81.7998 114.1 80.1998C102.4 78.5998 94.2001 67.4998 95.8001 55.4998C97.4001 43.4998 108.2 35.0998 119.9 36.6998C131.6 38.2998 139.8 49.3998 138.2 61.3998Z" fill="#FF7D00"/>
<path d="M113.8 46.7998C114.7 47.0998 115.4 47.6998 116.1 48.1998C116.8 48.7998 117.4 49.4998 117.9 50.2998C118.9 51.8998 119.4 53.7998 119.5 55.5998V56.9998L119.3 58.3998C119.2 58.8998 119.1 59.2998 119 59.6998C118.9 60.0998 118.7 60.5998 118.6 60.9998C118.2 61.7998 117.8 62.6998 117.4 63.4998C116.9 64.2998 116.4 64.9998 115.9 65.6998H115.8L117 63.2998C117.3 62.4998 117.7 61.6998 118 60.7998L118.3 59.4998C118.4 59.0998 118.5 58.5998 118.6 58.1998L118.8 56.8998V55.5998C118.7 53.7998 118.3 52.0998 117.4 50.4998C116.5 49.0998 115.2 47.7998 113.8 46.7998Z" fill="black"/>
<path d="M118.1 46.0996C118.9 46.1996 119.6 46.5996 120.3 46.8996C121 47.2996 121.6 47.7996 122.1 48.3996C123.2 49.5996 123.9 51.0996 124.2 52.6996L124.4 53.8996V55.0996C124.4 55.4996 124.4 55.8996 124.3 56.2996C124.3 56.6996 124.2 57.0996 124.1 57.4996C123.9 58.2996 123.7 58.9996 123.4 59.6996C123.1 60.3996 122.8 61.0996 122.4 61.7996H122.3L123 59.5996C123.2 58.8996 123.3 58.0996 123.5 57.3996C123.7 55.8996 123.8 54.3996 123.5 52.8996C123.2 51.3996 122.6 49.9996 121.6 48.7996C120.8 47.5996 119.5 46.6996 118.1 46.0996Z" fill="black"/>
<path d="M21.9003 48.0996C20.4003 49.0996 19.2003 50.3996 18.3003 51.7996C17.4003 53.1996 16.9003 54.8996 16.7003 56.5996C16.4003 58.2996 16.7003 59.9996 17.0003 61.6996C17.2003 62.4996 17.4003 63.3996 17.6003 64.1996C17.9003 64.9996 18.1003 65.8996 18.4003 66.7996H18.3003L17.2003 64.2996C16.9003 63.4996 16.6003 62.5996 16.4003 61.7996L16.1003 60.4996C16.0003 60.0996 15.9003 59.5996 15.9003 59.1996L15.8003 57.8996L15.9003 56.5996C16.1003 54.7996 16.7003 53.0996 17.7003 51.5996C18.9003 50.0996 20.2003 48.7996 21.9003 48.0996Z" fill="black"/>
<path d="M17.6002 46.9995C16.2002 47.6995 15.0002 48.5995 14.1002 49.6995C13.2002 50.7995 12.5002 52.0995 12.2002 53.4995C11.7002 54.8995 11.8002 56.3995 11.7002 57.7995C11.7002 58.4995 11.8002 59.2995 11.9002 59.9995C12.0002 60.7995 12.1002 61.4995 12.2002 62.2995H12.1002L11.5002 60.0995C11.4002 59.2995 11.3002 58.5995 11.2002 57.7995C11.1002 56.2995 11.1002 54.6995 11.6002 53.1995C12.0002 51.6995 12.8002 50.2995 13.8002 49.1995C14.7002 48.1995 16.1002 47.3995 17.6002 46.9995Z" fill="black"/>
<path d="M69.0003 55.4995C80.8003 55.3995 88.8003 49.0995 99.6003 48.7995C105.7 48.6995 111.7 49.8995 112.3 56.9995C113.5 70.0995 104.6 79.4995 93.5003 85.5995C79.2003 93.3995 62.1003 93.8995 47.0003 87.8995C34.3003 82.7995 20.8003 73.6995 22.6003 58.0995C23.4003 50.8995 29.0003 49.5995 35.1003 49.5995C46.1003 49.5995 58.2003 55.4995 69.0003 55.4995Z" fill="white"/>
<mask id="mask0_8519_354" style="mask-type:luminance" maskUnits="userSpaceOnUse" x="22" y="48" width="91" height="44">
<path d="M69.0003 55.4995C80.8003 55.3995 88.8003 49.0995 99.6003 48.7995C105.7 48.6995 111.7 49.8995 112.3 56.9995C113.5 70.0995 104.6 79.4995 93.5003 85.5995C79.2003 93.3995 62.1003 93.8995 47.0003 87.8995C34.3003 82.7995 20.8003 73.6995 22.6003 58.0995C23.4003 50.8995 29.0003 49.5995 35.1003 49.5995C46.1003 49.5995 58.2003 55.4995 69.0003 55.4995Z" fill="white"/>
</mask>
<g mask="url(#mask0_8519_354)">
<path d="M48.1002 51.4995C46.8002 55.6995 45.4002 61.5995 45.1002 68.4995C44.7002 76.4995 45.9002 83.1995 47.0002 87.8995" stroke="black" stroke-width="0.7119" stroke-miterlimit="10"/>
</g>
<mask id="mask1_8519_354" style="mask-type:luminance" maskUnits="userSpaceOnUse" x="22" y="48" width="91" height="44">
<path d="M69.0003 55.4995C80.8003 55.3995 88.8003 49.0995 99.6003 48.7995C105.7 48.6995 111.7 49.8995 112.3 56.9995C113.5 70.0995 104.6 79.4995 93.5003 85.5995C79.2003 93.3995 62.1003 93.8995 47.0003 87.8995C34.3003 82.7995 20.8003 73.6995 22.6003 58.0995C23.4003 50.8995 29.0003 49.5995 35.1003 49.5995C46.1003 49.5995 58.2003 55.4995 69.0003 55.4995Z" fill="white"/>
</mask>
<g mask="url(#mask1_8519_354)">
<path d="M69.0005 55.4995C68.0005 59.8995 67.1005 65.7995 67.2005 72.6995C67.3005 80.5995 68.7005 87.1995 70.1005 91.9995" stroke="black" stroke-width="0.7119" stroke-miterlimit="10"/>
</g>
<mask id="mask2_8519_354" style="mask-type:luminance" maskUnits="userSpaceOnUse" x="22" y="48" width="91" height="44">
<path d="M69.0003 55.4995C80.8003 55.3995 88.8003 49.0995 99.6003 48.7995C105.7 48.6995 111.7 49.8995 112.3 56.9995C113.5 70.0995 104.6 79.4995 93.5003 85.5995C79.2003 93.3995 62.1003 93.8995 47.0003 87.8995C34.3003 82.7995 20.8003 73.6995 22.6003 58.0995C23.4003 50.8995 29.0003 49.5995 35.1003 49.5995C46.1003 49.5995 58.2003 55.4995 69.0003 55.4995Z" fill="white"/>
</mask>
<g mask="url(#mask2_8519_354)">
<path d="M91.1001 50.1992C90.2001 54.7992 89.4 61.1992 90 68.8992C90.6 75.7992 92.1 81.4992 93.5 85.6992" stroke="black" stroke-width="0.7119" stroke-miterlimit="10"/>
</g>
<path d="M69.0003 55.4995C80.8003 55.3995 88.8003 49.0995 99.6003 48.7995C105.7 48.6995 111.7 49.8995 112.3 56.9995C113.5 70.0995 104.6 79.4995 93.5003 85.5995C79.2003 93.3995 62.1003 93.8995 47.0003 87.8995C34.3003 82.7995 20.8003 73.6995 22.6003 58.0995C23.4003 50.8995 29.0003 49.5995 35.1003 49.5995C46.1003 49.5995 58.2003 55.4995 69.0003 55.4995Z" stroke="black" stroke-width="0.7119" stroke-miterlimit="10"/>
</svg>
