


<svg width="169" height="70" viewBox="0 0 169 70" fill="none" xmlns="http://www.w3.org/2000/svg">
<path d="M70.2998 29.0002C73.3998 47.7002 60.4999 65.4002 41.5999 68.6002C22.6999 71.8002 4.79984 59.3002 1.79984 40.6002C-1.30016 21.9002 11.5999 4.20021 30.4999 1.00021C49.3999 -2.19979 67.1998 10.3002 70.2998 29.0002Z" fill="white" stroke="black" stroke-width="0.7268" stroke-miterlimit="10"/>
<path d="M48.3003 66.7004C50.1003 63.5004 46.8003 59.9004 47.9003 56.4004C48.8003 53.5004 50.8003 52.3004 50.3003 48.9004C49.9003 46.1004 47.7003 44.0004 46.4003 41.6004C43.9003 36.8004 46.5003 35.7004 47.7003 30.8004C48.5003 27.7004 47.8003 25.8004 46.0003 23.0004C44.0003 19.8004 43.4003 20.0004 44.7003 16.6004C45.5003 14.6004 47.2003 12.6004 47.3003 10.3004C47.5003 7.00039 45.5003 3.60038 42.5003 2.50038C37.6003 0.700385 32.7003 1.00039 27.0003 2.60039C21.5003 4.20039 22.5003 9.00038 22.7003 10.7004C23.0003 13.0004 24.8003 14.8004 25.7003 16.8004C27.2003 20.1004 26.6003 20.0004 24.8003 23.3004C23.3003 26.2004 22.7003 28.2004 23.6003 31.2004C25.1003 36.0004 27.7003 36.9004 25.5003 41.9004C24.4003 44.4004 22.3003 46.6004 22.1003 49.5004C21.8003 53.0004 23.9003 54.1004 25.0003 56.8004C26.3003 60.2004 23.2003 64.0004 25.2003 67.1004C27.9003 67.8004 31.5003 68.4004 35.7003 68.5004C41.0003 68.5004 45.3003 67.6004 48.3003 66.7004Z" fill="black" stroke="black" stroke-width="0.7268" stroke-miterlimit="10"/>
<path d="M99.2998 29.0002C96.1998 47.7002 109.1 65.4002 128 68.6002C146.9 71.8002 164.8 59.3002 167.8 40.6002C170.9 21.9002 158 4.20021 139.1 1.00021C120.2 -2.19979 102.4 10.3002 99.2998 29.0002Z" fill="white" stroke="black" stroke-width="0.7268" stroke-miterlimit="10"/>
<path d="M121.3 66.7004C119.5 63.5004 122.8 59.9004 121.7 56.4004C120.8 53.5004 118.8 52.3004 119.3 48.9004C119.7 46.1004 121.9 44.0004 123.2 41.6004C125.7 36.8004 123.1 35.7004 121.9 30.8004C121.1 27.7004 121.8 25.8004 123.6 23.0004C125.6 19.8004 126.2 20.0004 124.9 16.6004C124.1 14.6004 122.4 12.6004 122.3 10.3004C122.1 7.00039 124.1 3.60038 127.1 2.50038C132 0.700385 136.9 1.00039 142.6 2.60039C148.1 4.20039 147.1 9.00038 146.9 10.7004C146.6 13.0004 144.8 14.8004 143.9 16.8004C142.4 20.1004 143 20.0004 144.8 23.3004C146.3 26.2004 146.9 28.2004 146 31.2004C144.5 36.0004 141.9 36.9004 144.1 41.9004C145.2 44.4004 147.3 46.6004 147.5 49.5004C147.8 53.0004 145.7 54.1004 144.6 56.8004C143.3 60.2004 146.4 64.0004 144.4 67.1004C141.7 67.8004 138.1 68.4004 133.9 68.5004C128.5 68.5004 124.3 67.6004 121.3 66.7004Z" fill="black" stroke="black" stroke-width="0.7268" stroke-miterlimit="10"/>
</svg>
