<svg width="177" height="76" viewBox="0 0 177 76" fill="none" xmlns="http://www.w3.org/2000/svg">
<path d="M103.9 36.7999C102.4 34.9999 96.9003 29.0999 88.4003 28.8999C78.4003 28.7999 72.4003 37.0999 71.7003 37.9999L68.3003 34.9999C69.6003 33.0999 76.5003 23.8999 88.4003 24.0999C98.6003 24.1999 105.2 31.3999 107 33.4999L103.9 36.7999Z" fill="#FF7D00" stroke="black" stroke-width="0.8148" stroke-miterlimit="10"/>
<path opacity="0.74" d="M62.8004 13.0998C57.0004 10.6998 49.2004 12.9998 40.3004 20.5998C31.9004 13.5998 24.3004 11.5998 18.5004 14.0998C9.30035 18.0998 9.30035 31.2998 17.8003 44.6998C18.6003 45.8998 19.4003 47.0998 20.3003 48.3998C26.3003 56.2998 34.0004 62.3998 41.5004 65.5998C48.0004 61.7998 54.6003 55.8998 60.0004 48.6998C61.1003 47.1998 62.1003 45.6998 63.1003 44.1998C71.5004 30.1998 71.7004 16.7998 62.8004 13.0998Z" fill="black" stroke="black" stroke-width="0.8148" stroke-miterlimit="10"/>
<path d="M70.4002 4.19992C62.6002 0.999917 52.0002 3.99992 40.1002 14.2999C28.7002 4.89992 18.6002 2.19992 10.7002 5.59992C-1.5998 10.8999 -1.7998 28.6999 9.7002 46.7999C10.7002 48.3999 11.9002 50.0999 13.1002 51.6999C21.2002 62.3999 31.6002 70.5999 41.6002 74.8999C50.4002 69.7999 59.3002 61.8999 66.5002 52.0999C68.0002 50.0999 69.4002 47.9999 70.6002 45.9999C82.2002 27.0999 82.4002 9.09992 70.4002 4.19992ZM63.0002 44.1999C62.1002 45.6999 61.1002 47.1999 59.9002 48.6999C54.6002 55.8999 48.0002 61.7999 41.4002 65.5999C34.0002 62.3999 26.2002 56.2999 20.2002 48.3999C19.3002 47.1999 18.4002 45.9999 17.7002 44.6999C9.2002 31.2999 9.30021 18.0999 18.4002 14.0999C24.2002 11.5999 31.8002 13.4999 40.2002 20.5999C49.1002 12.9999 56.9002 10.6999 62.7002 13.0999C71.7002 16.7999 71.5002 30.1999 63.0002 44.1999Z" fill="#FF7D00" stroke="black" stroke-width="0.8148" stroke-miterlimit="10"/>
<path opacity="0.74" d="M114.2 11.1002C120 8.70019 127.8 10.9002 136.7 18.5002C145.1 11.4002 152.6 9.5002 158.5 11.9002C167.7 15.8002 167.8 29.0002 159.4 42.5002C158.6 43.7002 157.8 44.9002 156.9 46.2002C151 54.2002 143.2 60.3002 135.8 63.6002C129.3 59.8002 122.6 54.0002 117.3 46.8002C116.2 45.3002 115.1 43.8002 114.2 42.3002C105.6 28.2002 105.3 14.9002 114.2 11.1002Z" fill="black" stroke="black" stroke-width="0.8148" stroke-miterlimit="10"/>
<path d="M106.5 43.9C107.7 45.9 109.1 48 110.6 50C117.8 59.7 126.8 67.6 135.6 72.7C145.6 68.3 156 60.1 164 49.3C165.2 47.7 166.3 46 167.4 44.4C178.8 26.3 178.6 8.50003 166.2 3.20003C158.3 -0.0999684 148.2 2.50003 136.9 12C124.9 1.80003 114.3 -1.19997 106.6 2.10003C94.6004 7.20003 94.9004 25.2 106.5 43.9ZM114.2 11.1C120 8.70003 127.8 10.9 136.7 18.5C145.1 11.4 152.6 9.50004 158.5 11.9C167.7 15.8 167.8 29 159.4 42.5C158.6 43.7 157.8 44.9 156.9 46.2C151 54.2 143.2 60.3 135.8 63.6C129.3 59.8 122.6 54 117.3 46.8C116.2 45.3 115.1 43.8 114.2 42.3C105.6 28.2 105.3 14.9 114.2 11.1Z" fill="#FF7D00" stroke="black" stroke-width="0.8148" stroke-miterlimit="10"/>
</svg>
