<svg width="167" height="37" viewBox="0 0 167 37" fill="none" xmlns="http://www.w3.org/2000/svg">
<path d="M0.261364 18.4545C0.261364 14.875 0.725379 11.5843 1.65341 8.58239C2.59091 5.57102 3.92614 2.80114 5.65909 0.272725H8.61364C7.93182 1.21023 7.29261 2.36553 6.69602 3.73864C6.1089 5.10227 5.5928 6.60322 5.14773 8.24148C4.70265 9.87026 4.35227 11.5559 4.09659 13.2983C3.85038 15.0407 3.72727 16.7595 3.72727 18.4545C3.72727 20.7083 3.94508 22.9953 4.38068 25.3153C4.81629 27.6354 5.40341 29.7898 6.14205 31.7784C6.88068 33.767 7.70455 35.3864 8.61364 36.6364H5.65909C3.92614 34.108 2.59091 31.3428 1.65341 28.3409C0.725379 25.3295 0.261364 22.0341 0.261364 18.4545ZM28.7876 33.4545C26.7232 33.4545 24.782 33.0663 22.9638 32.2898C21.1551 31.5133 19.5594 30.4384 18.1768 29.0653C16.8037 27.6828 15.7242 26.0871 14.9382 24.2784C14.1617 22.4697 13.7782 20.5284 13.7876 18.4545C13.7971 16.3807 14.1901 14.4394 14.9666 12.6307C15.7526 10.822 16.8321 9.23106 18.2053 7.85795C19.5784 6.47538 21.1693 5.39583 22.978 4.61932C24.7867 3.8428 26.7232 3.45455 28.7876 3.45455C30.8615 3.45455 32.8028 3.8428 34.6115 4.61932C36.4297 5.39583 38.0206 6.47538 39.3842 7.85795C40.7573 9.23106 41.8321 10.822 42.6087 12.6307C43.3852 14.4394 43.7782 16.3807 43.7876 18.4545C43.7971 20.5284 43.4136 22.4697 42.6371 24.2784C41.8606 26.0871 40.7857 27.6828 39.4126 29.0653C38.0395 30.4384 36.4439 31.5133 34.6257 32.2898C32.8075 33.0663 30.8615 33.4545 28.7876 33.4545ZM55.0483 8.22727L58.5142 1.63636H62.4347L58.0028 8.22727H55.0483ZM97.6584 11.1818V14.3068H68.7379V11.1818H97.6584ZM72.1186 11.1818H75.9254C75.0069 12.7443 74.3061 14.1364 73.8232 15.358C73.3497 16.5795 73.0277 17.7348 72.8572 18.8239C72.6868 19.9129 72.6016 21.0398 72.6016 22.2045C72.6016 24.7614 73.0088 26.7453 73.8232 28.1562C74.6375 29.5672 75.7455 30.2727 77.147 30.2727C78.3875 30.2727 79.3771 29.7187 80.1158 28.6108C80.8639 27.5028 81.2379 25.8977 81.2379 23.7955V18.4545H83.9084V23.7955C83.9084 25.8504 83.6338 27.5928 83.0845 29.0227C82.5447 30.4527 81.7493 31.5417 80.6982 32.2898C79.647 33.0284 78.3686 33.3977 76.8629 33.3977C75.2247 33.3977 73.8232 32.9432 72.6584 32.0341C71.5031 31.125 70.6177 29.8182 70.0021 28.1136C69.3866 26.3996 69.0788 24.3352 69.0788 21.9205C69.0788 19.9413 69.3298 18.0663 69.8317 16.2955C70.3336 14.5152 71.0959 12.8106 72.1186 11.1818ZM90.4709 11.1818H94.2777C95.3004 12.8106 96.0627 14.5152 96.5646 16.2955C97.0665 18.0663 97.3175 19.9413 97.3175 21.9205C97.3175 24.3352 97.0097 26.3996 96.3942 28.1136C95.7786 29.8182 94.8885 31.125 93.7237 32.0341C92.5684 32.9432 91.1716 33.3977 89.5334 33.3977C88.0277 33.3977 86.7493 33.0284 85.6982 32.2898C84.647 31.5417 83.8468 30.4527 83.2976 29.0227C82.7578 27.5928 82.4879 25.8504 82.4879 23.7955V18.4545H85.1584V23.7955C85.1584 25.8977 85.5324 27.5028 86.2805 28.6108C87.0286 29.7187 88.0182 30.2727 89.2493 30.2727C90.1963 30.2727 91.0059 29.9555 91.6783 29.321C92.3601 28.6866 92.8809 27.768 93.2408 26.5653C93.6101 25.3627 93.7947 23.9091 93.7947 22.2045C93.7947 21.0398 93.7095 19.9129 93.5391 18.8239C93.3686 17.7348 93.0419 16.5795 92.5589 15.358C92.0855 14.1364 91.3894 12.7443 90.4709 11.1818ZM110.119 8.22727L105.688 1.63636H109.608L113.074 8.22727H110.119ZM137.616 33.4545C135.551 33.4545 133.61 33.0663 131.792 32.2898C129.983 31.5133 128.388 30.4384 127.005 29.0653C125.632 27.6828 124.552 26.0871 123.766 24.2784C122.99 22.4697 122.606 20.5284 122.616 18.4545C122.625 16.3807 123.018 14.4394 123.795 12.6307C124.581 10.822 125.66 9.23106 127.033 7.85795C128.406 6.47538 129.997 5.39583 131.806 4.61932C133.615 3.8428 135.551 3.45455 137.616 3.45455C139.69 3.45455 141.631 3.8428 143.44 4.61932C145.258 5.39583 146.849 6.47538 148.212 7.85795C149.585 9.23106 150.66 10.822 151.437 12.6307C152.213 14.4394 152.606 16.3807 152.616 18.4545C152.625 20.5284 152.242 22.4697 151.465 24.2784C150.689 26.0871 149.614 27.6828 148.241 29.0653C146.868 30.4384 145.272 31.5133 143.454 32.2898C141.636 33.0663 139.69 33.4545 137.616 33.4545ZM166.149 18.4545C166.149 22.0341 165.68 25.3295 164.743 28.3409C163.815 31.3428 162.484 34.108 160.751 36.6364H157.797C158.479 35.6989 159.113 34.5436 159.7 33.1705C160.297 31.8068 160.818 30.3106 161.263 28.6818C161.708 27.0436 162.054 25.3532 162.3 23.6108C162.555 21.8589 162.683 20.1402 162.683 18.4545C162.683 16.2008 162.465 13.9138 162.03 11.5938C161.594 9.27367 161.007 7.11932 160.268 5.13068C159.53 3.14205 158.706 1.52273 157.797 0.272725H160.751C162.484 2.80114 163.815 5.57102 164.743 8.58239C165.68 11.5843 166.149 14.875 166.149 18.4545Z" fill="black"/>
</svg>
