<svg width="28" height="31" viewBox="0 0 28 31" fill="none" xmlns="http://www.w3.org/2000/svg">
<path d="M13.7 3.30012C13.6 3.30012 13.5 3.30014 13.5 3.20014C13.5 2.20014 13.6 -2.09987 7.00004 2.00013C0.200044 6.20013 -0.599956 10.3001 3.50004 10.9001C3.50004 10.9001 3.60005 10.9001 3.60005 11.0001C2.30005 19.9001 17.1 32.6001 19.3 29.6001C20.4 28.1001 15.5 24.2001 15.1 23.7001C14.8 23.4001 13.7 21.5001 13.9 21.0001C13.9 21.0001 23.1 32.7001 25.1 28.0001C25.9 26.0001 22.5 24.5001 20.5 21.6001C19.7 20.4001 17.6 18.0001 17.8 17.9001C17.8 17.9001 23.2 24.3001 25 25.3001C27.5 26.8001 29.8 23.0001 24.3 18.2001C23.5 17.6001 22.9 16.8001 22.4 15.9001L20.3 12.4001C20.3 12.4001 20.3 12.4001 20.4 12.4001C21.7 12.8001 25.1 18.3001 27 14.7001C28.3 12.3001 20.8 0.600116 13.7 3.30012Z" fill="white"/>
<path d="M24.4001 18.0002C23.7001 17.4002 23.1001 16.6001 22.5001 15.8001L20.9001 13.2002C21.1001 13.4002 21.3001 13.6001 21.6001 13.9001C22.7001 15.0001 24.2001 16.4002 25.5001 16.2002C26.1001 16.1002 26.7001 15.7001 27.1001 14.9001C27.8001 13.6001 26.4001 10.2002 23.9001 7.20017C22.4001 5.40017 18.3001 1.50016 13.8001 3.10016C13.8001 2.40016 13.7001 0.900142 12.6001 0.300142C11.5001 -0.299858 9.50014 0.200142 6.90014 1.80014C2.70014 4.40014 0.400146 7.20017 0.800146 9.20017C1.00015 10.2002 1.90015 10.9002 3.30015 11.1002C2.40015 18.3002 11.6001 27.8001 16.5001 29.8001C16.9001 30.0001 17.2001 30.1002 17.5001 30.1002C18.6001 30.3002 19.1001 30.0002 19.4001 29.6002C20.3001 28.4002 18.0001 26.0001 15.7001 23.9001C15.5001 23.7001 15.3001 23.5001 15.2001 23.4001C15.0001 23.1001 14.5001 22.4001 14.3001 21.8001C16.0001 23.9001 21.1001 29.7001 23.8001 29.3001C24.5001 29.2001 24.9001 28.8002 25.2001 28.1002C25.8001 26.7002 24.5001 25.6001 23.1001 24.3001C22.2001 23.5001 21.3001 22.6002 20.5001 21.5002L20.4001 21.4001C22.0001 23.1001 23.8001 25.0002 24.7001 25.6002C25.7001 26.2002 26.7001 26.0002 27.3001 25.2002C28.4001 23.8002 27.9001 21.0002 24.4001 18.0002ZM22.9001 24.6002C24.3001 25.9002 25.3001 26.9001 24.9001 27.9001C24.7001 28.5001 24.3001 28.8001 23.8001 28.9001C20.8001 29.3001 14.2001 20.9001 14.1001 20.8001V20.7002L17.6001 18.0002C17.7001 18.3002 18.1001 18.8002 19.1001 20.1002C19.5001 20.7002 20.0001 21.3002 20.3001 21.7002C21.0001 22.8002 22.0001 23.8002 22.9001 24.6002ZM27.1001 24.8001C26.7001 25.4001 25.9001 25.5002 25.1001 25.0002C23.4001 24.0002 18.3001 18.1002 18.0001 17.6002L19.8001 16.2002C19.9001 16.1002 19.9001 16.0001 19.8001 15.9001C19.7001 15.8001 19.6001 15.8001 19.5001 15.9001L12.1001 21.5002C12.0001 21.6002 12.0001 21.7001 12.1001 21.8001L12.2001 21.9001C12.3001 21.9001 12.3001 21.9001 12.4001 21.9001L13.6001 21.0002C13.5001 21.8002 14.7001 23.6001 14.9001 23.8001C15.0001 23.9001 15.1001 24.0001 15.4001 24.3001C16.5001 25.3001 19.9001 28.3001 19.1001 29.4001C18.6001 30.0001 17.4001 29.7001 16.8001 29.4001C14.3001 28.4001 10.8001 25.4002 8.10015 22.1002C6.30015 19.8002 3.30015 15.3002 3.80015 11.1002C4.00015 10.9002 5.00014 9.90017 6.20014 9.20017C6.30014 9.10017 6.30015 9.00015 6.30015 8.90015C6.20015 8.80015 6.10014 8.80014 6.00014 8.80014C4.90014 9.50014 4.10014 10.3002 3.70014 10.7002C2.80014 10.6002 1.70014 10.2002 1.40014 9.10016C1.10014 7.70016 2.50015 5.20017 7.30015 2.20017C9.70015 0.700166 11.5001 0.200166 12.5001 0.700166C13.4001 1.20017 13.4001 2.50016 13.5001 3.10016V3.20017C12.8001 3.50017 11.2001 4.20014 9.60015 5.80014C9.50015 5.90014 9.50015 6.00016 9.60015 6.10016L9.70014 6.20017C9.80014 6.20017 9.90014 6.20016 9.90014 6.10016C11.6001 4.40016 13.2001 3.80015 13.8001 3.50015H13.9001C18.2001 1.90015 22.1001 5.70015 23.6001 7.50015C26.2001 10.5002 27.3001 13.6002 26.8001 14.6002C26.4001 15.3002 26.0001 15.6002 25.6001 15.7002C24.5001 15.9002 23.2001 14.6002 22.1001 13.5002C21.6001 13.0002 21.2001 12.6001 20.9001 12.4001C21.3001 12.1001 21.6001 11.9001 21.6001 11.9001C21.7001 11.8001 21.7001 11.7002 21.6001 11.6002C21.5001 11.5002 21.4001 11.5002 21.3001 11.6002C21.3001 11.6002 20.9001 11.9001 20.3001 12.3001C20.3001 12.3001 20.2001 12.3001 20.2001 12.4001C19.3001 13.0001 17.8001 13.6002 16.3001 13.5002C14.9001 13.4002 13.6001 12.7002 12.5001 11.5002C12.4001 11.4002 12.3001 11.4002 12.2001 11.5002C12.1001 11.6002 12.1001 11.7001 12.2001 11.8001C13.2001 12.9001 14.3001 13.6001 15.5001 13.9001C15.8001 14.0001 16.0001 14.0002 16.3001 14.0002C17.9001 14.1002 19.4001 13.5001 20.3001 12.9001L22.3001 16.2002C22.8001 17.1002 23.5001 17.9002 24.3001 18.5002C27.4001 21.2002 27.9001 23.7001 27.1001 24.8001Z" fill="black"/>
</svg>
