<svg width="386" height="297" viewBox="0 0 386 297" fill="none" xmlns="http://www.w3.org/2000/svg">
<path fill-rule="evenodd" clip-rule="evenodd" d="M29.9193 255.165C29.7726 255.214 29.6208 255.221 29.4739 255.174C27.4611 254.536 12.1673 248.923 3.84713 223.364C-4.47305 197.805 4.53041 184.095 5.77469 182.372C5.8655 182.247 5.99152 182.161 6.1382 182.112L146.182 135.45L33.7597 36.5394C33.6113 36.4088 33.5182 36.2385 33.504 36.0404C33.3321 33.6336 32.7296 16.942 47.2907 0.385019C61.8752 -16.1986 82.7555 -20.9851 85.7416 -21.5983C85.978 -21.6468 86.2075 -21.5766 86.3883 -21.4175L198.779 77.4661L222.771 -31.5249C222.813 -31.7149 222.897 -31.8835 223.034 -32.0216C224.767 -33.7681 237.945 -45.8768 265.855 -41.0727C294.211 -36.1916 298.732 -18.8608 299.151 -16.927C299.177 -16.8058 299.172 -16.6887 299.146 -16.5673L275.193 92.4647L359.734 64.296C359.978 64.2148 360.242 64.2543 360.442 64.4138C362.529 66.0761 374.359 76.2163 381.318 97.5932C388.277 118.97 384.718 134.238 384.015 136.829C383.948 137.078 383.759 137.268 383.516 137.349L298.89 165.546L359.994 219.306C360.1 219.4 360.178 219.515 360.215 219.653C360.716 221.517 363.868 236.018 347.022 255.791C330.207 275.528 310.52 277.292 307.881 277.441C307.683 277.453 307.501 277.382 307.352 277.252L246.382 223.609L222.485 332.383C222.436 332.61 222.3 332.798 222.093 332.902C219.789 334.05 204.937 340.789 182.32 335.975C159.84 331.19 148.206 319.935 146.326 317.983C146.149 317.799 146.085 317.544 146.14 317.293L170.046 208.476L29.9193 255.165ZM263.051 184.452C278.472 165.178 274.544 136.251 252.586 118.016C230.628 99.781 202.534 101.621 186.875 121.192C171.454 140.466 175.348 168.87 197.306 187.106C219.265 205.341 247.63 203.726 263.051 184.452Z" fill="#F3F3F3" fill-opacity="0.1"/>
</svg>
