<svg width="50" height="50" viewBox="0 0 50 50" xmlns="http://www.w3.org/2000/svg">
<path d="M34.6915 15.8283C32.9182 14.976 30.9981 14.3574 28.998 14C28.9629 14.0005 28.9293 14.0153 28.9047 14.0412C28.6647 14.4949 28.3847 15.086 28.198 15.5396C26.0766 15.2099 23.9193 15.2099 21.7978 15.5396C21.6112 15.0722 21.3312 14.4949 21.0778 14.0412C21.0645 14.0137 21.0245 14 20.9845 14C18.9844 14.3574 17.0777 14.976 15.291 15.8283C15.2777 15.8283 15.2643 15.842 15.251 15.8558C11.6242 21.4506 10.6242 26.8942 11.1176 32.2828C11.1176 32.3103 11.1309 32.3378 11.1576 32.3515C13.5576 34.166 15.8644 35.2657 18.1444 35.9943C18.1844 36.0081 18.2244 35.9943 18.2378 35.9668C18.7711 35.2108 19.2511 34.4135 19.6645 33.5749C19.6911 33.5199 19.6645 33.465 19.6111 33.4512C18.8511 33.1488 18.1311 32.7914 17.4244 32.379C17.3711 32.3515 17.3711 32.269 17.4111 32.2278C17.5577 32.1178 17.7044 31.9941 17.8511 31.8841C17.8777 31.8566 17.9177 31.8566 17.9444 31.8704C22.5312 34.0286 27.478 34.0286 32.0115 31.8704C32.0381 31.8566 32.0781 31.8566 32.1048 31.8841C32.2515 32.0078 32.3981 32.1178 32.5448 32.2415C32.5981 32.2828 32.5981 32.3652 32.5315 32.3927C31.8381 32.8189 31.1048 33.1625 30.3447 33.465C30.2914 33.4787 30.2781 33.5474 30.2914 33.5887C30.7181 34.4272 31.1981 35.2245 31.7181 35.9806C31.7581 35.9943 31.7981 36.0081 31.8381 35.9943C34.1315 35.2657 36.4382 34.166 38.8383 32.3515C38.865 32.3378 38.8783 32.3103 38.8783 32.2828C39.465 26.0556 37.905 20.6533 34.7449 15.8558C34.7315 15.842 34.7182 15.8283 34.6915 15.8283ZM20.3578 28.9974C18.9844 28.9974 17.8377 27.6915 17.8377 26.0831C17.8377 24.4748 18.9578 23.1689 20.3578 23.1689C21.7712 23.1689 22.8912 24.4885 22.8779 26.0831C22.8779 27.6915 21.7578 28.9974 20.3578 28.9974ZM29.6514 28.9974C28.278 28.9974 27.1313 27.6915 27.1313 26.0831C27.1313 24.4748 28.2514 23.1689 29.6514 23.1689C31.0648 23.1689 32.1848 24.4885 32.1715 26.0831C32.1715 27.6915 31.0648 28.9974 29.6514 28.9974Z" fill="currentColor"/>
</svg>
