<svg width="25" height="24" viewBox="0 0 25 24" fill="none" xmlns="http://www.w3.org/2000/svg">
    <path fill-rule="evenodd" clip-rule="evenodd"
        d="M1.50408 15.4531C1.20835 15.4531 0.913541 15.3657 0.735831 15.1293C0.476762 14.7847 0.151916 14.1371 0.151917 13.0563C0.151917 11.9755 0.476762 11.328 0.735831 10.9834C0.913541 10.747 1.20835 10.6595 1.50408 10.6595L10.0818 10.6595L5.6965 3.06248C5.51349 2.74545 5.44897 2.36731 5.61714 2.04216C5.81682 1.6561 6.19599 1.12955 6.8916 0.713626C7.57826 0.303049 8.31484 0.180333 8.84028 0.153259C9.29727 0.129712 9.69641 0.404705 9.92518 0.801013L14.2334 8.26451L17.4185 2.752C17.6011 2.43609 17.8659 2.1639 18.2262 2.10592C18.686 2.03191 19.4264 2.0551 20.371 2.57041C21.4682 3.16904 21.7587 3.90057 21.8303 4.32241C21.8687 4.54845 21.7883 4.76962 21.6736 4.96819L18.3883 10.6595L23.0777 10.6595C23.5659 10.6595 24.0268 10.9017 24.1861 11.3633C24.3252 11.7665 24.4557 12.3365 24.4557 13.0563C24.4557 13.7762 24.3252 14.3462 24.1861 14.7494C24.0268 15.211 23.5659 15.4531 23.0777 15.4531L18.383 15.4531L20.7218 19.5049C20.8532 19.7326 20.9256 19.9951 20.836 20.2422C20.7012 20.614 20.3561 21.1969 19.4723 21.7447C18.6262 22.2692 17.848 22.3533 17.3466 22.3325C16.9722 22.3169 16.6679 22.0692 16.4807 21.7447L14.2351 17.8546L11.1233 23.2453C10.9048 23.624 10.5266 23.8917 10.0923 23.8421C9.66087 23.7929 9.06009 23.6438 8.3893 23.2427C7.74093 22.855 7.30671 22.4192 7.0317 22.0738C6.73797 21.7049 6.76717 21.2047 7.00291 20.7963L10.0872 15.4531L1.50408 15.4531ZM15.7543 15.3775C16.9846 14.6671 17.3611 13.0461 16.5409 11.6251C15.7206 10.2041 14.1578 9.7264 12.9087 10.4478C11.6784 11.1582 11.3106 12.7506 12.1309 14.1717C12.9512 15.5927 14.5241 16.0879 15.7543 15.3775Z"
        fill="#4281FF" />
</svg>