<svg width="150" height="39" viewBox="0 0 150 39" fill="none" xmlns="http://www.w3.org/2000/svg">
<path d="M49.53 12.2275H61.9725V15.4675H53.6475V18.4825H61.1625V21.7H53.6475V24.76H62.1975V28H49.53V12.2275ZM73.1731 21.4525C73.1731 20.7625 72.9856 20.215 72.6106 19.81C72.2356 19.405 71.7331 19.2025 71.1031 19.2025C70.3531 19.2175 69.7606 19.4875 69.3256 20.0125C68.9056 20.5225 68.6956 21.1825 68.6956 21.9925H67.7506C67.7506 20.6125 67.9531 19.4575 68.3581 18.5275C68.7631 17.5825 69.3331 16.87 70.0681 16.39C70.8181 15.91 71.7106 15.67 72.7456 15.67C73.6306 15.67 74.4031 15.865 75.0631 16.255C75.7381 16.63 76.2556 17.17 76.6156 17.875C76.9756 18.565 77.1556 19.3825 77.1556 20.3275V28H73.1731V21.4525ZM64.7131 15.85H68.7181V28H64.7131V15.85ZM86.9617 12.2275C89.0617 12.2275 90.6817 12.715 91.8217 13.69C92.9617 14.65 93.5317 16.0075 93.5317 17.7625C93.5317 19.6075 92.9617 21.0475 91.8217 22.0825C90.6817 23.1025 89.0617 23.6125 86.9617 23.6125H83.9917V28H79.8742V12.2275H86.9617ZM86.9617 20.3725C87.8167 20.3725 88.4692 20.1625 88.9192 19.7425C89.3842 19.3225 89.6167 18.7 89.6167 17.875C89.6167 17.08 89.3842 16.48 88.9192 16.075C88.4692 15.67 87.8167 15.4675 86.9617 15.4675H83.9917V20.3725H86.9617ZM86.2417 22.105H90.2467L94.0042 28H89.3467L86.2417 22.105ZM103.783 20.8675C103.798 20.3725 103.708 19.9525 103.513 19.6075C103.333 19.2475 103.071 18.97 102.726 18.775C102.381 18.58 101.983 18.4825 101.533 18.4825C101.008 18.4825 100.558 18.625 100.183 18.91C99.8235 19.18 99.5385 19.5625 99.3285 20.0575C99.1335 20.5375 99.036 21.1 99.036 21.745C99.036 22.45 99.156 23.0575 99.396 23.5675C99.636 24.0775 99.9735 24.475 100.408 24.76C100.858 25.03 101.376 25.165 101.961 25.165C103.041 25.165 103.993 24.7525 104.818 23.9275L106.911 25.9975C106.296 26.6725 105.538 27.1975 104.638 27.5725C103.753 27.9475 102.741 28.135 101.601 28.135C100.281 28.135 99.1335 27.88 98.1585 27.37C97.1985 26.86 96.456 26.14 95.931 25.21C95.421 24.28 95.166 23.2 95.166 21.97C95.166 20.71 95.4285 19.615 95.9535 18.685C96.4785 17.74 97.221 17.0125 98.181 16.5025C99.141 15.9775 100.251 15.715 101.511 15.715C102.936 15.715 104.113 16.015 105.043 16.615C105.988 17.2 106.678 18.04 107.113 19.135C107.563 20.23 107.743 21.5125 107.653 22.9825H98.4735V20.8675H103.783ZM114.213 22.825C113.643 22.825 113.216 22.93 112.931 23.14C112.661 23.335 112.526 23.65 112.526 24.085C112.526 24.52 112.668 24.865 112.953 25.12C113.238 25.36 113.643 25.48 114.168 25.48C114.573 25.48 114.941 25.4125 115.271 25.2775C115.616 25.1425 115.901 24.955 116.126 24.715C116.366 24.46 116.523 24.175 116.598 23.86L117.161 25.6375C116.831 26.4625 116.306 27.0925 115.586 27.5275C114.866 27.9625 113.981 28.18 112.931 28.18C112.061 28.18 111.311 28.015 110.681 27.685C110.066 27.355 109.593 26.905 109.263 26.335C108.933 25.765 108.768 25.1125 108.768 24.3775C108.768 23.2225 109.166 22.3225 109.961 21.6775C110.771 21.0325 111.926 20.7025 113.426 20.6875H116.981V22.825H114.213ZM116.598 20.5525C116.598 19.9675 116.403 19.51 116.013 19.18C115.623 18.85 115.046 18.685 114.281 18.685C113.771 18.685 113.201 18.7675 112.571 18.9325C111.941 19.0975 111.296 19.345 110.636 19.675L109.533 17.02C110.178 16.735 110.801 16.495 111.401 16.3C112.016 16.09 112.638 15.9325 113.268 15.8275C113.898 15.7225 114.543 15.67 115.203 15.67C116.898 15.67 118.203 16.06 119.118 16.84C120.048 17.605 120.521 18.685 120.536 20.08V28H116.598V20.5525ZM131.079 20.215C130.809 19.81 130.471 19.5025 130.066 19.2925C129.676 19.0675 129.219 18.955 128.694 18.955C128.214 18.955 127.786 19.0825 127.411 19.3375C127.051 19.5775 126.766 19.9225 126.556 20.3725C126.361 20.8225 126.264 21.3475 126.264 21.9475C126.264 22.5475 126.361 23.0725 126.556 23.5225C126.766 23.9725 127.051 24.325 127.411 24.58C127.786 24.835 128.214 24.9625 128.694 24.9625C129.234 24.9625 129.699 24.85 130.089 24.625C130.494 24.4 130.824 24.0475 131.079 23.5675L134.026 25.255C133.546 26.17 132.826 26.8825 131.866 27.3925C130.906 27.8875 129.781 28.135 128.491 28.135C127.246 28.135 126.151 27.88 125.206 27.37C124.261 26.86 123.526 26.14 123.001 25.21C122.491 24.28 122.236 23.2 122.236 21.97C122.236 20.71 122.499 19.615 123.024 18.685C123.549 17.74 124.284 17.0125 125.229 16.5025C126.174 15.9775 127.276 15.715 128.536 15.715C129.751 15.715 130.831 15.9625 131.776 16.4575C132.721 16.9375 133.456 17.6275 133.981 18.5275L131.079 20.215ZM144.433 21.4525C144.433 20.7625 144.246 20.215 143.871 19.81C143.496 19.405 142.993 19.2025 142.363 19.2025C141.628 19.2175 141.043 19.4875 140.608 20.0125C140.188 20.5225 139.978 21.1825 139.978 21.9925H139.011C139.011 20.6125 139.213 19.4575 139.618 18.5275C140.023 17.5825 140.601 16.87 141.351 16.39C142.101 15.91 142.986 15.67 144.006 15.67C144.906 15.67 145.686 15.865 146.346 16.255C147.006 16.63 147.516 17.17 147.876 17.875C148.251 18.565 148.438 19.3825 148.438 20.3275V28H144.433V21.4525ZM135.973 11.305H139.978V28H135.973V11.305Z" fill="white"/>
<path fill-rule="evenodd" clip-rule="evenodd" d="M15.943 24.5619L1.44201 24.5619C1.44201 24.5619 0 23.6003 0 20.7158C0 17.8312 1.44201 16.8697 1.44201 16.8697L15.9344 16.8697L8.4415 3.88911C8.4415 3.88911 8.80496 2.11148 10.8151 0.909579C12.8252 -0.292324 15.1019 0.0430167 15.1019 0.0430167L22.5964 13.0264L28.1545 3.40695C28.1545 3.40695 29.8015 2.44685 32.4452 3.88913C35.0889 5.33142 34.8141 7.25445 34.8141 7.25445L29.2638 16.8697L38.0387 16.8697C38.0387 16.8697 39 18.2406 39 20.7158C39 23.191 38.0387 24.5619 38.0387 24.5619H29.2551L33.3301 31.6213C33.3301 31.6213 33.3301 33.2156 31.0032 34.6578C28.6763 36.1001 26.6698 35.4674 26.6698 35.4674L22.5991 28.4154L17.0531 38.0232C17.0531 38.0232 15.3576 38.3408 13.2184 37.0617C11.0792 35.7826 10.3927 34.1771 10.3927 34.1771L15.943 24.5619ZM25.0373 24.393C27.0115 23.253 27.6158 20.6518 26.2995 18.3715C24.9832 16.0912 22.4755 15.3247 20.4709 16.4823C18.4968 17.6223 17.9066 20.1777 19.2229 22.458C20.5391 24.7383 23.0631 25.533 25.0373 24.393Z" fill="#4281FF"/>
</svg>
