<svg width="234" height="101" viewBox="0 0 234 101" fill="none" xmlns="http://www.w3.org/2000/svg">
<path d="M214.784 34.3125C201.824 34.3125 194.174 27.2475 194.174 17.6175C194.174 8.48252 201.104 0.83252 216.044 0.83252C222.344 0.83252 227.114 2.18252 230.534 3.71252V12.8025C227.654 11.4525 223.469 10.3725 218.564 10.3725C209.114 10.3725 205.919 14.1075 205.919 18.0675C205.919 22.3875 209.474 25.2675 215.369 25.2675C219.374 25.2675 222.074 23.9625 223.154 21.6675H210.149L212.039 14.1525H233.369V18.4725C233.369 28.9575 226.034 34.3125 214.784 34.3125Z" fill="white"/>
<path d="M154.352 33.3225V1.82251H169.157L179.822 21.3525V1.82251H189.767V33.3225H175.412L164.342 13.4325V33.3225H154.352Z" fill="white"/>
<path d="M137.169 33.3225V1.77747H148.419V33.3225H137.169Z" fill="white"/>
<path d="M84.0622 33.3225L86.0422 1.82251H102.557L107.912 19.5075L113.402 1.82251H129.872L132.257 33.3225H121.322L119.837 11.0925L113.087 33.3225H101.792L95.6272 12.0375L94.3672 33.3225H84.0622Z" fill="white"/>
<path d="M60.0508 34.3575C47.4508 34.3575 39.5308 26.7525 39.5308 17.3925C39.5308 7.80748 47.4508 0.787476 60.0958 0.787476C72.6058 0.787476 80.5708 7.80748 80.5708 17.3925C80.5708 26.7975 72.6058 34.3575 60.0508 34.3575ZM60.0508 25.2225C65.1808 25.2225 68.4658 22.0275 68.4658 17.4825C68.4658 12.9825 65.1808 9.92248 60.0508 9.92248C54.8758 9.92248 51.5908 12.9825 51.5908 17.4825C51.5908 22.0275 54.8758 25.2225 60.0508 25.2225Z" fill="white"/>
<path d="M22.0392 34.3575C8.85418 34.3575 1.47418 27.1575 1.47418 17.7525C1.47418 8.21247 8.98918 0.787476 22.3542 0.787476C27.8892 0.787476 32.1642 1.95748 35.9442 3.84748V13.1625C33.5142 11.4525 29.5542 10.1475 25.0542 10.1475C17.8542 10.1475 13.7592 13.1625 13.7592 17.4825C13.7592 21.8475 17.9442 24.9075 25.0542 24.9075C29.6442 24.9075 33.6042 23.5575 36.0342 21.6225V30.7125C31.8042 33.1875 27.7092 34.3575 22.0392 34.3575Z" fill="white"/>
<path fill-rule="evenodd" clip-rule="evenodd" d="M82.4329 100.411C64.5129 100.377 53.269 89.5405 53.2937 76.2285C53.319 62.5966 64.6015 52.6335 82.5855 52.6668C100.377 52.6998 111.687 62.7048 111.662 76.3368C111.637 89.7128 100.289 100.444 82.4329 100.411ZM82.457 87.4187C89.753 87.4322 94.4334 82.8969 94.4454 76.4329C94.4573 70.0329 89.7934 65.6722 82.4974 65.6587C75.1374 65.645 70.4573 69.9884 70.4454 76.3884C70.4335 82.8523 75.097 87.405 82.457 87.4187ZM115.731 76.3444C115.706 89.6564 126.95 100.493 144.87 100.526C162.726 100.56 174.074 89.8286 174.099 76.4527C174.124 62.8207 162.815 52.8157 145.023 52.7827C127.039 52.7493 115.756 62.7124 115.731 76.3444ZM156.883 76.5487C156.871 83.0127 152.19 87.548 144.894 87.5345C137.534 87.5208 132.871 82.9682 132.883 76.5042C132.895 70.1042 137.575 65.7609 144.935 65.7745C152.231 65.7881 156.895 70.1487 156.883 76.5487ZM180.386 54.3203L180.302 99.1203L194.51 99.1466L194.563 70.8587L210.254 99.1758L230.67 99.2137L230.753 54.4138L216.609 54.3875L216.558 82.1635L201.442 54.3594L180.386 54.3203ZM5.09606 94.5712C10.2741 97.7808 17.7577 100.163 26.6537 100.179C40.1577 100.204 49.1928 94.205 49.2102 84.861C49.2252 76.733 44.3047 72.6919 33.9399 70.9447L26.7741 69.7794C22.6792 69.1958 21.5284 68.5536 21.5311 67.0816C21.5342 65.4176 23.8401 64.3979 29.7921 64.4089C37.28 64.4228 43.3561 66.5461 46.5528 68.344L46.5734 57.2081C43.2493 55.1539 37.2378 52.7107 27.7658 52.6932C12.2778 52.6644 4.84267 58.6666 4.82687 67.1786C4.81298 74.6666 9.41231 79.3472 20.1607 81.2871L26.5586 82.451C31.0371 83.2273 32.3794 84.1898 32.3762 85.9178C32.3725 87.9018 29.9388 88.7933 24.8828 88.7839C17.5868 88.7703 10.5512 86.3893 5.11755 82.9872L5.09606 94.5712Z" fill="#4281FF"/>
<path fill-rule="evenodd" clip-rule="evenodd" d="M79.4311 99.4106C61.1011 99.3766 49.2678 88.2232 49.2937 74.2267C49.3069 67.1145 52.2659 60.9333 57.5681 56.5523C62.8571 52.1823 70.4159 49.6498 79.5873 49.6668C88.6651 49.6837 96.182 52.2453 101.445 56.6342C106.722 61.0337 109.675 67.2249 109.662 74.3387C109.636 88.4022 97.6936 99.4445 79.4311 99.4106ZM87.5012 81.623C89.3639 79.8886 90.4399 77.412 90.4454 74.431C90.4509 71.487 89.3879 69.0751 87.5384 67.3901C85.6804 65.6973 82.9466 64.6651 79.4955 64.6587C76.0104 64.6522 73.2566 65.6755 71.3852 67.3614C69.5227 69.0392 68.4509 71.4463 68.4454 74.3902C68.4399 77.3711 69.5065 79.8508 71.3695 81.5918C73.2377 83.3376 75.9852 84.4122 79.4589 84.4187C82.8984 84.425 85.6337 83.3619 87.5012 81.623ZM50.2937 74.2285C50.269 87.5405 61.5129 98.3774 79.4329 98.4106C97.2889 98.4438 108.637 87.7128 108.662 74.3368C108.687 60.7048 97.3775 50.6998 79.5855 50.6668C61.6015 50.6335 50.319 60.5966 50.2937 74.2285ZM91.4454 74.4329C91.4334 80.8969 86.753 85.4322 79.457 85.4187C72.097 85.405 67.4335 80.8523 67.4454 74.3884C67.4573 67.9884 72.1374 63.645 79.4974 63.6587C86.7934 63.6722 91.4573 68.0329 91.4454 74.4329ZM111.731 74.3425C111.705 88.3391 123.538 99.4925 141.868 99.5265C160.131 99.5604 172.073 88.518 172.099 74.4545C172.112 67.3408 169.159 61.1495 163.883 56.75C158.619 52.3612 151.103 49.7995 142.025 49.7827C132.853 49.7657 125.294 52.2981 120.006 56.6681C114.703 61.0492 111.744 67.2304 111.731 74.3425ZM152.883 74.5469C152.877 77.5279 151.801 80.0044 149.939 81.7388C148.071 83.4778 145.336 84.5409 141.896 84.5345C138.423 84.5281 135.675 83.4534 133.807 81.7076C131.944 79.9666 130.877 77.4869 130.883 74.5061C130.888 71.5622 131.96 69.1551 133.823 67.4772C135.694 65.7913 138.448 64.7681 141.933 64.7745C145.384 64.7809 148.118 65.8132 149.976 67.5059C151.825 69.191 152.888 71.6028 152.883 74.5469ZM141.87 98.5265C123.95 98.4932 112.706 87.6564 112.731 74.3444C112.756 60.7124 124.039 50.7493 142.023 50.7827C159.815 50.8157 171.124 60.8207 171.099 74.4527C171.074 87.8286 159.726 98.5596 141.87 98.5265ZM141.894 85.5345C149.19 85.548 153.871 81.0127 153.883 74.5487C153.895 68.1487 149.231 63.7881 141.935 63.7745C134.575 63.7609 129.895 68.1042 129.883 74.5042C129.871 80.9682 134.534 85.5208 141.894 85.5345ZM176.302 97.1184L176.301 98.1184L177.301 98.1203L191.509 98.1466L192.509 98.1485L192.51 97.1485L192.556 72.7135L206.38 97.6605L206.665 98.1747L207.253 98.1758L227.669 98.2137L228.669 98.2156L228.67 97.2156L228.753 52.4156L228.755 51.4156L227.755 51.4138L213.611 51.3875L212.611 51.3857L212.609 52.3857L212.565 76.2439L199.32 51.8817L199.037 51.3605L198.443 51.3594L177.387 51.3203L176.387 51.3185L176.386 52.3185L176.302 97.1184ZM191.563 68.8587L191.559 70.9149L191.512 96.1466L191.51 97.1466L190.51 97.1448L178.302 97.1221L177.302 97.1203L177.304 96.1203L177.384 53.3203L177.386 52.3203L178.386 52.3222L198.442 52.3594L212.561 78.3304L213.558 80.1635L213.562 78.077L213.608 53.3875L213.609 52.3875L214.609 52.3894L226.753 52.4119L227.753 52.4138L227.752 53.4138L227.672 96.2137L227.67 97.2137L226.67 97.2118L207.254 97.1758L192.56 70.6573L191.563 68.8587ZM1.09606 92.5693L1.09502 93.1272L1.56921 93.4211C6.9164 96.7356 14.5843 99.1624 23.6518 99.1792C30.537 99.192 36.3862 97.6712 40.5488 94.8624C44.7407 92.0338 47.2008 87.9034 47.2101 82.8629C47.2181 78.5733 45.9112 75.2346 43.1321 72.7628C40.4014 70.3342 36.3603 68.8443 31.1062 67.9585L31.1004 67.9576L23.9346 66.7923L23.9249 66.7907L23.9152 66.7894C21.8592 66.4963 20.7078 66.2058 20.079 65.8773C19.788 65.7253 19.6742 65.5972 19.623 65.5148C19.5747 65.4369 19.5306 65.3174 19.5311 65.0835C19.5314 64.9256 19.5762 64.7929 19.7148 64.6453C19.8755 64.4744 20.1876 64.2614 20.7606 64.0612C21.9171 63.657 23.8432 63.4035 26.7902 63.4089C34.1041 63.4225 40.0123 65.5001 43.0626 67.2156L44.5496 68.052L44.5528 66.3459L44.5734 55.2099L44.5745 54.6511L44.0991 54.3574C40.6124 52.2028 34.4186 49.7111 24.7676 49.6932C16.9151 49.6786 10.9598 51.1893 6.93507 53.9041C2.86534 56.6492 0.835392 60.5865 0.826876 65.1768C0.819509 69.1476 2.04623 72.4717 4.77202 75.0411C7.46244 77.577 11.5152 79.2843 16.9831 80.2712L23.3796 81.4348L23.3796 81.4349L23.3878 81.4363C25.6147 81.8223 26.9031 82.2332 27.6219 82.6779C27.9617 82.8881 28.1337 83.082 28.2279 83.2486C28.3207 83.4125 28.3767 83.618 28.3762 83.9159C28.3757 84.1881 28.2991 84.3839 28.1524 84.5568C27.9894 84.7488 27.6922 84.9655 27.1701 85.1631C26.1065 85.5657 24.3856 85.7885 21.8847 85.7839C14.7967 85.7707 7.94212 83.4542 2.64822 80.1396L1.12089 79.1833L1.11755 80.9853L1.09606 92.5693ZM23.5586 80.451L17.1607 79.2871C6.41231 77.3472 1.81298 72.6666 1.82687 65.1786C1.84267 56.6666 9.27781 50.6644 24.7658 50.6932C34.2378 50.7107 40.2493 53.1539 43.5734 55.2081L43.5549 65.2069L43.5528 66.344C43.2459 66.1714 42.9124 65.9958 42.5538 65.8194C39.1764 64.1579 33.5611 62.4215 26.7921 62.4089C20.8401 62.3979 18.5342 63.4176 18.5311 65.0816C18.5284 66.5536 19.6792 67.1958 23.7741 67.7794L30.9399 68.9447C41.3047 70.6919 46.2252 74.733 46.2101 82.861C46.1928 92.205 37.1577 98.2042 23.6537 98.1792C14.7577 98.1627 7.27411 95.7808 2.09606 92.5712L2.11537 82.1596L2.11755 80.9872C2.44479 81.1921 2.77785 81.3933 3.11643 81.5905C8.39964 84.6675 15.0262 86.7712 21.8828 86.7839C26.9388 86.7933 29.3725 85.9018 29.3762 83.9178C29.3794 82.1898 28.0371 81.2273 23.5586 80.451Z" fill="white"/>
</svg>
