<svg width="50" height="50" viewBox="0 0 50 50" fill="none" xmlns="http://www.w3.org/2000/svg">
<g clipPath="url(#clip0_259_102)">
<path d="M34.6134 15.8731C34.6134 15.8731 37.2034 14.8631 36.9874 17.3151C36.9154 18.3251 36.2684 21.8611 35.7644 25.6841L34.0374 37.0111C34.0374 37.0111 33.8934 38.6701 32.5984 38.9591C31.3034 39.2471 29.3614 37.9491 29.0014 37.6601C28.7134 37.4431 23.6054 34.1971 21.8064 32.6101C21.3024 32.1771 20.7264 31.3111 21.8784 30.3011L29.4334 23.0871C30.2964 22.2201 31.1594 20.2001 27.5624 22.6531L17.4894 29.5071C17.4894 29.5071 16.3374 30.2291 14.1794 29.5791L9.50238 28.1361C9.50238 28.1361 7.77538 27.0541 10.7254 25.9721C17.9214 22.5811 26.7714 19.1201 34.6134 15.8731Z" fill="white"/>
</g>
<defs>
<clipPath id="clip0_259_102">
<rect width="32" height="32" fill="white" transform="translate(9 11)"/>
</clipPath>
</defs>
</svg>
