<svg width="222" height="43" viewBox="0 0 222 43" fill="none" xmlns="http://www.w3.org/2000/svg">
<path d="M157.4 16.8999C157.4 16.3999 156.2 6.2999 155.8 2.4999C148.1 3.2999 135.7 4.69991 132.8 5.09991C133.2 8.39991 136.8 41.6999 136.8 41.6999L220.6 31.7999C196.6 -14.6001 170.6 2.4999 157.4 16.8999Z" fill="#8BC8CA"/>
<path d="M221 31.5C211.4 13 200.6 2.80004 188.8 1.20004C176.2 -0.499965 165.1 7.90003 157.8 15.6C157.5 12.3 156.4 3.60002 156.3 2.40002L156.2 1.90002L155.7 2.00002C147.8 2.90002 135.3 4.30003 132.7 4.60003L132.2 4.70004L132.3 5.20004C132.7 8.50004 136.3 41.4 136.3 41.8L136.4 42.3L221.5 32.2L221 31.5ZM137.2 41C136.8 36.9 133.8 10.4 133.3 5.50002C136.7 5.10002 147.8 3.90003 155.3 3.10003C155.4 4.30003 155.6 5.50001 155.7 6.80001L143.8 8.00002C143.5 8.00002 143.3 8.30003 143.3 8.60003C143.3 8.90003 143.5 9.00003 143.8 9.10003H143.9L155.8 7.90002C156 9.90002 156.3 11.8 156.4 13.4L144.8 14.9C144.5 14.9 144.3 15.2 144.3 15.5C144.3 15.7 144.5 15.9 144.8 16H144.9L156.5 14.5C156.7 15.9 156.7 16.8 156.8 17V18.4L157.7 17.4C164.8 9.60002 176 0.700017 188.6 2.40002C199.9 3.90002 210.3 13.7 219.6 31.4L137.2 41Z" fill="black"/>
<path d="M63.9002 16.8999C63.9002 16.3999 65.1002 6.2999 65.5002 2.4999C73.2002 3.2999 85.6002 4.69991 88.5002 5.09991C88.1002 8.39991 84.5002 41.6999 84.5002 41.6999L0.700195 31.7999C24.7002 -14.6001 50.7002 2.4999 63.9002 16.8999Z" fill="#8BC8CA"/>
<path d="M0 32.2L85.1 42.3L85.2 41.8C85.2 41.5 88.8 8.50004 89.2 5.20004L89.3 4.70004L88.8 4.60003C86.1 4.30003 73.6 2.90002 65.8 2.00002L65.3 1.90002L65.2 2.40002C65.1 3.60002 64 12.3 63.7 15.6C56.4 7.90003 45.3 -0.499965 32.7 1.20004C20.9 2.80004 10.1 13 0.5 31.5L0 32.2ZM1.6 31.3C10.9 13.5 21.3 3.80001 32.6 2.30001C45.2 0.600011 56.4 9.50001 63.5 17.3L64.4 18.3V16.9C64.4 16.7 64.5 15.8 64.7 14.4L76.3 15.9H76.4C76.6 15.9 76.8 15.7 76.9 15.4C76.9 15.1 76.7 14.8 76.4 14.8L64.8 13.3C65 11.7 65.2 9.80001 65.4 7.80001L77.3 9.00002H77.4C77.6 9.00002 77.8 8.80002 77.9 8.50002C77.9 8.20002 77.7 7.90002 77.4 7.90002L65.5 6.70004C65.7 5.40004 65.8 4.10002 65.9 3.00002C73.4 3.80002 84.5 5.10002 87.9 5.40002C87.3 10.3 84.4 36.8 84 40.9L1.6 31.3Z" fill="black"/>
</svg>
