<svg width="199" height="59" viewBox="0 0 199 59" fill="none" xmlns="http://www.w3.org/2000/svg">
<path d="M44.5001 1.19992L87.1001 5.99991L81.7001 50.4999L0.900103 40.9999C0.900103 40.9999 -2.19989 3.29991 42.3001 18.0999L44.5001 1.19992Z" fill="#6AAD78"/>
<path d="M0.900103 41.3999H0.6001V41.0999C0.6001 40.9999 -0.499898 26.3999 9.2001 18.8999C16.4001 13.2999 27.4001 12.8999 42.1001 17.6999L44.3001 0.899902L87.8001 5.7999L82.3001 51.0999L0.900103 41.3999ZM44.9001 1.69992L42.7001 18.6999L42.2001 18.4999C27.6001 13.5999 16.6001 13.9999 9.6001 19.3999C1.1001 25.9999 1.3001 38.2999 1.3001 40.4999L81.4001 49.9999L86.6001 6.3999L44.9001 1.69992Z" fill="black"/>
<path d="M15.0001 42.5999C12.3001 53.8999 -2.0999 51.5999 1.6001 40.9999L15.0001 42.5999Z" fill="black"/>
<path d="M2.1001 48.5999C0.400103 46.7999 0.000102818 43.9999 1.1001 40.8999L1.20011 40.5999L15.4001 42.2999L15.3001 42.7999C14.4001 46.6999 11.9001 49.4999 8.7001 50.3999C7.9001 50.5999 7.00011 50.6999 6.20011 50.5999C4.70011 50.3999 3.2001 49.6999 2.1001 48.5999ZM1.8001 41.4999C1.0001 44.1999 1.30011 46.4999 2.70011 47.9999C4.10011 49.4999 6.3001 49.9999 8.5001 49.3999C11.3001 48.6999 13.5001 46.2999 14.4001 42.8999L1.8001 41.4999Z" fill="black"/>
<path d="M32.6001 44.6999C32.3001 49.8999 27.5001 54.9999 22.8001 54.6999C18.2001 54.4999 14.8001 47.5999 15.0001 42.5999L32.6001 44.6999Z" fill="black"/>
<path d="M18.2001 52.6999C15.9001 50.1999 14.5001 45.9999 14.7001 42.6999V42.2999L33.1001 44.4999V44.8999C32.7001 50.3999 27.7001 55.5999 22.9001 55.2999H22.8001C21.1001 54.9999 19.6001 54.1999 18.2001 52.6999ZM15.5001 43.0999C15.5001 46.1999 16.8001 49.7999 18.8001 52.0999C20.0001 53.4999 21.4001 54.1999 22.8001 54.2999C27.1001 54.4999 31.6001 49.9999 32.1001 45.0999L15.5001 43.0999Z" fill="black"/>
<path d="M51.6001 46.8999C49.3001 52.9999 45.0001 59.5999 38.8001 55.0999C35.8001 52.8999 34.0001 48.5999 32.9001 44.6999L51.6001 46.8999Z" fill="black"/>
<path d="M38.6001 55.4999C35.1001 52.9999 33.3001 47.6999 32.6001 44.8999L32.4001 44.2999L52.2001 46.5999L52.0001 47.0999C50.6001 50.8999 48.1001 55.6999 44.4001 56.8999C43.8001 57.0999 43.1001 57.1999 42.4001 57.0999C41.2001 56.9999 39.9001 56.4999 38.6001 55.4999ZM33.5001 45.1999C34.3001 48.0999 36.0001 52.5999 39.1001 54.7999C40.9001 56.0999 42.6001 56.4999 44.2001 55.9999C47.6001 54.9999 49.9001 50.2999 51.1001 47.2999L33.5001 45.1999Z" fill="black"/>
<path d="M52.1001 46.9999L66.3001 48.6999C64.6001 53.1999 61.8001 58.1999 57.8001 56.8999C53.8001 55.5999 52.9001 50.8999 52.1001 46.9999Z" fill="black"/>
<path d="M57.6001 57.2999C53.4001 55.9999 52.4001 50.7999 51.7001 47.0999L51.6001 46.4999L66.9001 48.2999L66.7001 48.7999C64.0001 55.9999 61.0001 57.6999 58.7001 57.4999C58.3001 57.4999 58.0001 57.3999 57.6001 57.2999ZM52.6001 47.4999C53.3001 51.0999 54.4001 55.3999 57.9001 56.4999C61.5001 57.6999 64.1001 53.1999 65.7001 49.0999L52.6001 47.4999Z" fill="black"/>
<path d="M81.3001 50.4999C80.7001 54.7999 78.8001 58.7999 74.2001 57.9999C70.7001 57.4999 68.9001 52.9999 68.1001 48.8999L81.3001 50.4999Z" fill="black"/>
<path d="M74.2001 58.3999C70.1001 57.7999 68.4001 52.1999 67.7001 48.9999L67.6001 48.3999L81.8001 50.0999L81.7001 50.4999C81.4001 52.7999 80.5001 55.8999 78.4001 57.4999C77.4001 58.2999 76.2001 58.5999 74.8001 58.4999C74.6001 58.4999 74.4001 58.4999 74.2001 58.3999ZM68.7001 49.3999C69.4001 52.4999 71.0001 57.0999 74.4001 57.5999C75.8001 57.7999 77.0001 57.5999 78.0001 56.7999C79.8001 55.4999 80.6001 52.8999 80.9001 50.7999L68.7001 49.3999Z" fill="black"/>
<path d="M15.0001 42.5999C15.1001 42.3999 15.1001 42.2999 15.1001 42.0999C15.1001 42.2999 15.1001 42.4999 15.1001 42.6999L15.0001 42.5999Z" fill="black"/>
<path d="M43.9176 8.9053L43.8204 9.69939L59.9005 11.6677L59.9977 10.8736L43.9176 8.9053Z" fill="black"/>
<path d="M63.1001 10.1999C63.6001 11.2999 63.1001 12.5999 62.1001 13.1999C61.1001 13.6999 59.9001 13.2999 59.5001 12.1999C59.0001 11.0999 59.5001 9.79991 60.5001 9.19991C61.5001 8.59991 62.6001 9.09991 63.1001 10.1999Z" fill="white"/>
<path d="M60.5001 13.6999C59.9001 13.4999 59.4001 12.9999 59.1001 12.2999C58.6001 10.9999 59.1001 9.39989 60.3001 8.79989C60.9001 8.49989 61.5001 8.39992 62.1001 8.69992C62.7001 8.89992 63.2001 9.39991 63.5001 10.0999C64.0001 11.3999 63.5001 12.9999 62.3001 13.5999C61.9001 13.7999 61.5001 13.8999 61.1001 13.8999C60.9001 13.7999 60.7001 13.6999 60.5001 13.6999ZM62.7001 10.3999C62.5001 9.9999 62.2001 9.5999 61.8001 9.4999C61.4001 9.3999 61.0001 9.39991 60.7001 9.59991C59.9001 9.99991 59.5001 11.0999 59.9001 11.9999C60.1001 12.3999 60.4001 12.7999 60.8001 12.8999C61.2001 12.9999 61.6001 12.9999 61.9001 12.7999C62.7001 12.3999 63.1001 11.2999 62.7001 10.3999Z" fill="black"/>
<path d="M42.2849 17.526L42.1831 18.3195L59.6405 20.5582L59.7423 19.7647L42.2849 17.526Z" fill="black"/>
<path d="M62.9001 19.3999C63.4001 20.4999 62.9001 21.7999 61.9001 22.3999C60.9001 22.8999 59.7001 22.4999 59.3001 21.3999C58.8001 20.2999 59.3001 18.9999 60.3001 18.3999C61.2001 17.7999 62.4001 18.2999 62.9001 19.3999Z" fill="white"/>
<path d="M60.2001 22.7999C59.6001 22.5999 59.1001 22.0999 58.8001 21.3999C58.3001 20.0999 58.8001 18.4999 60.0001 17.8999C60.6001 17.5999 61.2001 17.4999 61.8001 17.7999C62.4001 17.9999 62.9001 18.4999 63.2001 19.1999C63.7001 20.4999 63.2001 22.0999 62.0001 22.6999C61.6001 22.8999 61.2001 22.9999 60.8001 22.9999C60.6001 22.9999 60.4001 22.8999 60.2001 22.7999ZM60.4001 18.6999C59.6001 19.0999 59.2001 20.1999 59.6001 21.0999C59.8001 21.4999 60.1001 21.8999 60.5001 21.9999C60.9001 22.0999 61.3001 22.0999 61.6001 21.8999C62.4001 21.4999 62.8001 20.3999 62.4001 19.4999C62.2001 19.0999 61.9001 18.6999 61.5001 18.5999C61.4001 18.5999 61.3001 18.4999 61.1001 18.4999C60.9001 18.4999 60.7001 18.5999 60.4001 18.6999Z" fill="black"/>
<path d="M154.4 1.19983L111.8 5.99982L117.2 50.4998L198 40.9998C198 40.9998 201.1 3.29982 156.6 18.0998L154.4 1.19983Z" fill="#6AAD78"/>
<path d="M116.7 50.9998L111.2 5.69983L154.7 0.799805L156.9 17.5998C171.6 12.7998 182.6 13.1998 189.8 18.7998C199.4 26.3998 198.4 40.8998 198.4 40.9998V41.2998H198.1L116.7 50.9998ZM112.2 6.39981L117.4 49.9998L197.5 40.4998C197.6 38.2998 197.7 25.9998 189.2 19.3998C182.2 13.8998 171.2 13.5998 156.6 18.4998L156.1 18.6998L153.9 1.69983L112.2 6.39981Z" fill="black"/>
<path d="M183.9 42.5998C186.6 53.8998 201 51.5998 197.3 40.9998L183.9 42.5998Z" fill="black"/>
<path d="M192.6 50.4998C191.8 50.5998 191 50.4998 190.1 50.2998C186.8 49.3998 184.4 46.6998 183.5 42.6998L183.4 42.1998L197.6 40.4998L197.7 40.7998C198.8 43.8998 198.4 46.6998 196.7 48.4998C195.7 49.6998 194.3 50.3998 192.6 50.4998ZM184.5 42.9998C185.4 46.3998 187.6 48.6998 190.4 49.4998C192.6 50.0998 194.8 49.4998 196.2 48.0998C197.6 46.5998 197.9 44.1998 197.1 41.5998L184.5 42.9998Z" fill="black"/>
<path d="M166.3 44.6998C166.6 49.8998 171.4 54.9998 176.1 54.6998C180.7 54.4998 184.1 47.5998 183.9 42.5998L166.3 44.6998Z" fill="black"/>
<path d="M176.2 55.0998H176.1C171.3 55.3998 166.2 50.1998 165.9 44.6998V44.2998L184.3 42.0998V42.4998C184.5 45.8998 183 49.9998 180.8 52.4998C179.3 54.1998 177.8 54.9998 176.2 55.0998ZM166.7 45.0998C167.2 49.9998 171.8 54.5998 176 54.2998C177.4 54.1998 178.8 53.4998 180 52.0998C182 49.7998 183.4 46.1998 183.3 43.0998L166.7 45.0998Z" fill="black"/>
<path d="M147.3 46.8998C149.6 52.9998 153.9 59.5998 160.1 55.0998C163.1 52.8998 164.9 48.5998 166 44.6998L147.3 46.8998Z" fill="black"/>
<path d="M156.5 57.0998C155.8 57.0998 155.2 57.0998 154.5 56.8998C150.8 55.7998 148.3 50.9998 146.9 47.0998L146.7 46.5998L166.5 44.2998L166.3 44.8998C165.5 47.7998 163.7 52.9998 160.3 55.4998C159 56.4998 157.7 56.9998 156.5 57.0998ZM147.9 47.2998C149.1 50.2998 151.4 54.9998 154.8 55.9998C156.4 56.4998 158.1 56.0998 159.9 54.7998C162.9 52.5998 164.6 48.0998 165.5 45.1998L147.9 47.2998Z" fill="black"/>
<path d="M146.8 46.9998L132.6 48.6998C134.3 53.1998 137.1 58.1998 141.1 56.8998C145.1 55.5998 146.1 50.8998 146.8 46.9998Z" fill="black"/>
<path d="M140.2 57.4998C137.9 57.6998 134.9 55.9998 132.2 48.7998L132 48.2998L147.3 46.4998L147.2 47.0998C146.4 50.7998 145.4 55.9998 141.3 57.2998C140.9 57.3998 140.6 57.4998 140.2 57.4998ZM133.2 48.9998C134.8 53.1998 137.4 57.5998 141 56.3998C144.5 55.2998 145.5 50.9998 146.3 47.3998L133.2 48.9998Z" fill="black"/>
<path d="M117.6 50.4998C118.2 54.7998 120.1 58.7998 124.7 57.9998C128.2 57.4998 130 52.9998 130.8 48.8998L117.6 50.4998Z" fill="black"/>
<path d="M124.1 58.4998C122.7 58.5998 121.5 58.2998 120.5 57.4998C118.4 55.8998 117.5 52.7998 117.2 50.4998L117.1 50.0998L131.3 48.3998L131.2 48.9998C130.5 52.1998 128.8 57.7998 124.7 58.3998C124.5 58.4998 124.3 58.4998 124.1 58.4998ZM118.1 50.7998C118.4 52.8998 119.2 55.4998 121 56.7998C122 57.4998 123.2 57.7998 124.6 57.5998C128 57.0998 129.6 52.4998 130.3 49.3998L118.1 50.7998Z" fill="black"/>
<path d="M183.9 42.5998C183.8 42.3998 183.8 42.2998 183.8 42.0998C183.8 42.2998 183.8 42.4998 183.8 42.6998L183.9 42.5998Z" fill="black"/>
<path d="M154.996 8.923L138.916 10.8913L139.013 11.6854L155.093 9.7171L154.996 8.923Z" fill="black"/>
<path d="M135.8 10.1998C135.3 11.2998 135.8 12.5998 136.8 13.1998C137.8 13.6998 139 13.2998 139.4 12.1998C139.9 11.0998 139.4 9.79982 138.4 9.19982C137.5 8.59982 136.3 9.09982 135.8 10.1998Z" fill="white"/>
<path d="M137.8 13.7998C137.4 13.7998 137 13.6998 136.6 13.4998C135.4 12.8998 134.9 11.2998 135.4 9.99983C135.7 9.29983 136.2 8.79983 136.8 8.59983C137.4 8.39983 138 8.39984 138.6 8.69984C139.8 9.29984 140.3 10.8998 139.8 12.1998C139.5 12.8998 139 13.3998 138.4 13.5998C138.2 13.6998 138 13.7998 137.8 13.7998ZM136.2 10.3998C135.8 11.2998 136.2 12.3998 137 12.7998C137.4 12.9998 137.8 12.9998 138.1 12.8998C138.5 12.7998 138.8 12.3998 139 11.9998C139.4 11.0998 139 9.99983 138.2 9.59983C137.8 9.39983 137.4 9.39983 137.1 9.49983C136.7 9.59983 136.4 9.89982 136.2 10.3998Z" fill="black"/>
<path d="M156.59 17.489L139.132 19.7278L139.234 20.5213L156.691 18.2826L156.59 17.489Z" fill="black"/>
<path d="M136.1 19.3998C135.6 20.4998 136.1 21.7998 137.1 22.3998C138.1 22.8998 139.3 22.4998 139.7 21.3998C140.2 20.2998 139.7 18.9998 138.7 18.3998C137.7 17.7998 136.5 18.2998 136.1 19.3998Z" fill="white"/>
<path d="M138.1 22.9998C137.7 22.9998 137.3 22.8998 136.9 22.6998C135.7 22.0998 135.2 20.4998 135.7 19.1998C136 18.4998 136.5 17.9998 137.1 17.7998C137.7 17.5998 138.3 17.5998 138.9 17.8998C140.1 18.4998 140.6 20.0998 140.1 21.3998C139.8 22.0998 139.3 22.5998 138.7 22.7998C138.5 22.8998 138.3 22.9998 138.1 22.9998ZM137.7 18.5998C137.6 18.5998 137.5 18.5998 137.3 18.6998C136.9 18.7998 136.6 19.1998 136.4 19.5998C136 20.4998 136.4 21.5998 137.2 21.9998C137.6 22.1998 138 22.1998 138.3 22.0998C138.7 21.9998 139 21.5998 139.2 21.1998C139.6 20.2998 139.2 19.1998 138.4 18.7998C138.2 18.5998 138 18.4998 137.7 18.5998Z" fill="black"/>
</svg>
