<svg width="224" height="56" viewBox="0 0 224 56" fill="none" xmlns="http://www.w3.org/2000/svg">
<path d="M163 1.40039L129.9 2.20041L131.2 54.9004L223 54.7004L223.3 42.3004C223.3 42.3004 216.5 18.7004 162.8 25.7004L163 1.40039Z" fill="red"/>
<path d="M222.7 42.3002L187.9 42.1002C189.1 36.3002 190.9 30.7002 193.4 25.2002C216.3 28.2002 222.1 39.3002 223.1 41.8002C223.2 42.0002 223 42.3002 222.7 42.3002Z" fill="white"/>
<path d="M130.8 41.8003L222.7 42.4003C223 42.4003 223.2 42.6003 223.2 42.9003L222.9 54.8003L131.1 55.0003L130.8 41.8003Z" fill="white"/>
<path d="M223.8 42.2002C223.7 41.9002 223.4 40.9002 222.5 39.4002C221.7 38.0002 220.6 36.7002 219.5 35.5002C219.5 35.5002 219.5 35.5002 219.4 35.4002C219.3 35.3002 219.2 35.2002 219 35.0002C212.5 28.6002 197.3 20.7002 163.2 24.9002L163.5 0.700195L129.2 1.50018L130.5 54.7002V55.3002L223.4 55.1002L223.7 42.7002L223.8 42.2002ZM131.7 54.4002L131.4 42.3002L187.2 42.6002L222.7 42.8002L222.4 54.1002L131.7 54.4002ZM222.5 41.8002L188.6 41.6002C189.9 36.0002 191.5 30.8002 193.7 25.8002C215.2 28.7002 221.2 39.0002 222.5 41.8002ZM162.5 2.00018L162.4 9.60019L144 10.0002C143.7 10.0002 143.5 10.3002 143.5 10.6002C143.5 10.9002 143.8 11.1002 144.1 11.1002L162.5 10.7002L162.4 19.1002L144.6 19.2002C144.3 19.2002 144.1 19.5002 144.1 19.8002C144.1 20.1002 144.4 20.3002 144.7 20.3002L162.5 20.2002L162.4 26.3002L163 26.2002C175.2 24.6002 184.9 24.7002 192.7 25.6002C190.5 30.6002 188.8 35.8002 187.6 41.5002L131.5 41.2002L130.6 2.80017L162.5 2.00018Z" fill="black"/>
<path d="M61.6003 1.40039L94.7003 2.20041L93.4003 54.9004L1.60029 54.7004L1.30029 42.3004C1.30029 42.3004 8.1003 18.7004 61.8003 25.7004L61.6003 1.40039Z" fill="red"/>
<path d="M1.90013 42.3002L36.7001 42.1002C35.5001 36.3002 33.7001 30.7002 31.2001 25.2002C8.30013 28.2002 2.50013 39.3002 1.50013 41.8002C1.40013 42.0002 1.60013 42.3002 1.90013 42.3002Z" fill="white"/>
<path d="M93.8004 41.8003L1.90039 42.4003C1.60039 42.4003 1.40039 42.6003 1.40039 42.9003L1.70039 54.8003L93.5004 55.0003L93.8004 41.8003Z" fill="white"/>
<path d="M0.800194 42.9004L1.10019 55.3004L94.0002 55.5004V54.9004L95.3002 1.70041L61.0002 0.900391L61.3002 25.1004C27.2002 20.8004 12.1002 28.7004 5.50019 35.2004C5.40019 35.3004 5.30019 35.4004 5.10019 35.6004C5.10019 35.6004 5.10019 35.6004 5.00019 35.7004C3.80019 36.9004 2.80019 38.2004 2.00019 39.6004C1.10019 41.1004 0.800195 42.2004 0.700195 42.4004V42.5004L0.800194 42.9004ZM2.2002 54.2004L1.90019 42.9004L37.4002 42.7004L93.2002 42.4004L92.9002 54.5004L2.2002 54.2004ZM30.9002 25.8004C33.1002 30.8004 34.8002 36.0004 36.0002 41.6004L2.10019 41.8004C3.40019 39.0004 9.4002 28.7004 30.9002 25.8004ZM94.2002 2.80038L93.3002 41.2004L37.2002 41.5004C36.0002 35.8004 34.3002 30.6004 32.1002 25.6004C39.9002 24.6004 49.6002 24.6004 61.8002 26.2004L62.4002 26.3004L62.3002 20.2004L80.1002 20.3004C80.4002 20.3004 80.7002 20.1004 80.7002 19.8004C80.7002 19.5004 80.5002 19.2004 80.2002 19.2004L62.4002 19.1004L62.3002 10.7004L80.7002 11.1004C81.0002 11.1004 81.3002 10.9004 81.3002 10.6004C81.3002 10.3004 81.1002 10.0004 80.8002 10.0004L62.4002 9.6004L62.3002 2.0004L94.2002 2.80038Z" fill="black"/>
</svg>
