<svg width="276" height="117" viewBox="0 0 276 117" fill="none" xmlns="http://www.w3.org/2000/svg">
<path d="M48.5998 77.0003C48.5998 77.0003 58.9998 -23.9997 114.9 23.5003C114.9 23.5003 165.6 -53.8997 225.1 75.1003C272.8 81.4003 274.1 88.0003 274.7 92.3003C276.1 103.6 209.3 113.5 147.2 115.8C86.8998 118.1 2.99976 113.6 0.599764 100.1C-0.300236 95.4003 8.39976 88.2003 48.5998 77.0003Z" fill="pink"/>
<path d="M224.9 74.8001C195.3 79.2001 165.9 84.0001 135.4 84.6001C106.4 85.2001 77.5 82.6001 48.5 76.8001C48.7 75.4001 49.8 66.1001 52.6 55.0001C80.1 60.3001 107.5 62.6001 135 61.8001C161.8 61.0001 187.7 57.0001 213.8 53.1001C217.6 59.6001 221.2 66.8001 224.9 74.8001Z" fill="black"/>
<path d="M275.2 92.3002C274.7 87.9002 273.8 81.2002 225.5 74.7002C225.3 74.2002 225.1 73.8002 224.9 73.3002C224.5 72.5002 224.2 71.8002 223.8 71.0002C223.6 70.5002 223.3 70.0002 223.1 69.6002C221.9 67.0002 220.6 64.5002 219.4 62.0002C219.3 61.9002 219.3 61.8002 219.2 61.7002C217.8 59.1002 216.5 56.5002 215.1 54.1002C215.1 54.0002 215 54.0002 215 53.9002C214.8 53.5002 214.6 53.2002 214.4 52.8002L214.2 52.5002C195.5 19.2002 176 1.60016 156 0.100163C143 -0.899837 132.4 5.50016 125.8 11.0002C119.8 16.0002 115.9 21.2002 114.8 22.8002C101.4 11.5002 89.3998 7.80016 79.1998 11.9002C71.8998 14.9002 61.5998 23.5002 53.9998 48.4002C52.2998 54.0002 50.9998 59.5002 50.0998 64.1002C50.0998 64.2002 50.0998 64.3002 49.9998 64.4002C49.8998 64.7002 49.8998 65.0002 49.7998 65.2002C48.6998 70.8002 48.1998 75.0002 47.9998 76.7002C35.2998 80.2002 -1.8002 90.6002 -0.000201754 100.2C1.5998 108.8 33.9998 113.8 72.6998 115.9C97.0998 117.2 123.9 117.3 147.1 116.5C202.4 114.5 265 106.1 274 95.6002C274.9 94.4002 275.3 93.3002 275.2 92.3002ZM53.0998 55.6002C80.4998 60.9002 108 63.1002 135.1 62.3002C161.3 61.5002 187.2 57.6002 212.3 53.9002L213.6 53.7002C213.7 54.0002 213.9 54.2002 214 54.5002C214.1 54.7002 214.2 54.9002 214.3 55.1002C215.6 57.5002 216.9 59.9002 218.2 62.4002C218.3 62.5002 218.3 62.7002 218.4 62.8002C219 64.0002 219.7 65.3002 220.3 66.6002C220.4 66.8002 220.5 67.0002 220.6 67.2002C221.1 68.2002 221.6 69.3002 222.1 70.3002C222.3 70.7002 222.5 71.0002 222.6 71.4002C223.1 72.4002 223.5 73.4002 224 74.4002C221.4 74.8002 218.9 75.2002 216.3 75.5002C190 79.4002 162.8 83.5002 135.3 84.1002C106.6 84.7002 77.5998 82.1002 48.9998 76.4002C49.4998 74.1002 50.5998 65.7002 53.0998 55.6002ZM79.5998 12.9002C82.5998 11.7002 85.6998 11.2002 88.8998 11.4002C96.5998 11.8002 105.2 16.0002 114.6 24.0002L115 24.4002L115.3 23.9002C115.5 23.7002 131.3 -0.0998368 155.2 1.20016C155.4 1.20016 155.7 1.20016 155.9 1.20016C175.4 2.60016 194.6 20.0002 213.1 52.8002L212.2 52.9002C187.2 56.7002 161.3 60.6002 135.1 61.3002C108.1 62.1002 80.5998 59.9002 53.3998 54.6002C57.5998 38.4002 65.4998 18.5002 79.5998 12.9002ZM273.3 94.8002C266.4 102.9 217.4 112.8 147.2 115.4C79.7998 117.8 3.2998 112.1 1.0998 100C0.399798 96.0002 8.0998 88.9002 48.6998 77.6002L48.9998 77.5002C68.0998 81.3002 87.2998 83.7002 106.5 84.8002C116.2 85.3002 125.8 85.5002 135.4 85.3002C163 84.7002 190.2 80.7002 216.6 76.7002C219.3 76.3002 221.9 75.9002 224.6 75.5002L224.7 75.7002H225C272.8 82.0002 273.6 88.5002 274.1 92.4002C274.3 93.2002 274 94.0002 273.3 94.8002Z" fill="black"/>
</svg>
