<svg width="242" height="72" viewBox="0 0 242 72" fill="none" xmlns="http://www.w3.org/2000/svg">
<path d="M28.8999 44.2L40.1999 59.9L56.4999 48.6L45.6999 32L28.8999 44.2Z" fill="#FFC700"/>
<path d="M40.0999 60.4999L28.3999 44.0999L45.8999 31.3999L57.0999 48.5999L40.0999 60.4999ZM29.4999 44.2999L40.2999 59.3999L55.9999 48.3999L45.6999 32.5999L29.4999 44.2999Z" fill="black"/>
<path d="M212.699 45.4999L201.599 61.2999L185.199 49.9999L195.899 33.3999L212.699 45.4999Z" fill="#FFC700"/>
<path d="M201.7 61.7997L184.6 49.9997L195.7 32.6997L213.3 45.2997L201.7 61.7997ZM185.7 49.8997L201.5 60.7997L212.2 45.6997L196 33.9997L185.7 49.8997Z" fill="black"/>
<path d="M117.9 12.5998L118.2 29.6998L131.2 29.7998L130.8 12.2998L117.9 12.5998Z" fill="#FFC700"/>
<path d="M131.6 30.1999L117.8 30.0999L117.5 12.1999L131.2 11.8999L131.6 30.1999ZM118.6 29.2999L130.8 29.3999L130.5 12.6999L118.3 12.9999L118.6 29.2999Z" fill="black"/>
<path d="M44.0999 5.29999C34.6999 3.99999 4.79989 8.49998 0.599891 40.9C-0.900109 52.3 3.29987 63.1 10.2999 71.1C26.6999 49.9 49.2999 34 74.9999 25.8C68.9999 14.7 57.5999 7.19999 44.0999 5.29999Z" fill="#FFC700"/>
<path d="M10.3997 71.6998L10.0998 71.2999C2.49975 62.6999 -1.10027 51.5998 0.299732 40.7999C1.79973 28.9999 6.79976 19.7998 15.1998 13.3998C25.3998 5.59985 38.0998 4.09985 44.1998 4.89985C57.8998 6.79985 69.2997 14.3998 75.3997 25.5998L75.5997 25.9998L75.0997 26.0998C49.3997 34.1999 27.0998 49.7998 10.5998 71.1998L10.3997 71.6998ZM40.7997 5.49985C34.1997 5.49985 23.9998 7.59985 15.5998 13.9998C7.39975 20.2998 2.49974 29.2999 0.999744 40.8999C-0.300256 51.2999 3.09973 61.9998 10.2997 70.3998C26.7997 49.1998 48.8997 33.6999 74.3997 25.5998C68.2997 14.7998 57.2997 7.59985 43.9997 5.69985C43.0997 5.59985 41.9997 5.49985 40.7997 5.49985Z" fill="black"/>
<path d="M17.7943 11.6915C19.5475 11.1939 20.5655 9.36925 20.068 7.61596C19.5704 5.86268 17.7457 4.84471 15.9925 5.34227C14.2392 5.83982 13.2212 7.66448 13.7188 9.41776C14.2163 11.171 16.041 12.189 17.7943 11.6915Z" fill="#FFC700"/>
<path d="M16.8997 12.2003C15.2997 12.2003 13.7997 11.1003 13.3997 9.50025C13.0997 8.60025 13.1997 7.60025 13.6997 6.70025C14.1997 5.80025 14.9997 5.20025 15.8997 5.00025C17.7997 4.40025 19.8997 5.60025 20.3997 7.50025C20.6997 8.40025 20.5997 9.40025 20.0997 10.3003C19.5997 11.2003 18.7997 11.8003 17.8997 12.0003C17.5997 12.1003 17.1997 12.2003 16.8997 12.2003ZM16.8997 5.70025C16.5997 5.70025 16.3997 5.70025 16.0997 5.80025C15.3997 6.00025 14.7997 6.50025 14.3997 7.20025C13.9997 7.90025 13.8997 8.60025 14.0997 9.40025C14.4997 10.9003 16.0997 11.8003 17.5997 11.4003C18.2997 11.2003 18.8997 10.7003 19.2997 10.0003C19.6997 9.30025 19.7997 8.60025 19.5997 7.80025C19.2997 6.50025 18.1997 5.70025 16.8997 5.70025Z" fill="black"/>
<path d="M197 4.99981C206.4 3.59981 236.4 7.99981 240.7 40.2998C242.2 51.6998 238.1 62.4998 231.1 70.4998C214.6 49.3998 192 33.5998 166.1 25.5998C172.2 14.4998 183.5 6.89981 197 4.99981Z" fill="#FFC700"/>
<path d="M231.2 71.1996L230.9 70.7996C214.3 49.4996 191.9 33.9996 166.1 25.9996L165.6 25.8996L165.8 25.4996C172 14.1996 183.3 6.5996 197 4.5996C203.1 3.6996 215.9 5.1996 226.1 12.8996C234.5 19.2996 239.6 28.4996 241.2 40.2996C242.6 50.9996 239.1 62.1996 231.5 70.7996L231.2 71.1996ZM166.8 25.3996C192.3 33.3996 214.6 48.7996 231.2 69.8996C238.4 61.4996 241.7 50.6996 240.4 40.3996C238.9 28.7996 233.9 19.7996 225.6 13.5996C215.6 5.9996 203.1 4.5996 197.1 5.3996C183.9 7.2996 172.8 14.5996 166.8 25.3996Z" fill="black"/>
<path d="M227.507 8.90959C227.995 7.15375 226.968 5.33427 225.212 4.84565C223.457 4.35703 221.637 5.38429 221.148 7.14013C220.66 8.89596 221.687 10.7154 223.443 11.2041C225.199 11.6927 227.018 10.6654 227.507 8.90959Z" fill="#FFC700"/>
<path d="M224.3 11.6999C224 11.6999 223.6 11.6999 223.3 11.5999C222.4 11.2999 221.6 10.6999 221.1 9.89986C220.6 8.99986 220.5 8.09986 220.8 7.09986C221.3 5.19986 223.4 3.99986 225.3 4.59986C226.2 4.89986 227 5.49986 227.5 6.29986C228 7.19986 228.1 8.09986 227.8 9.09986C227.3 10.6999 225.9 11.6999 224.3 11.6999ZM221.5 7.29986C221.3 7.99986 221.4 8.79986 221.8 9.49986C222.2 10.1999 222.8 10.5999 223.5 10.7999C225 11.1999 226.6 10.2999 227 8.79986C227.2 8.09986 227.1 7.29986 226.7 6.59986C226.3 5.89986 225.7 5.49986 225 5.29986C223.5 4.89986 221.9 5.79986 221.5 7.29986Z" fill="black"/>
<path d="M101.499 16.1997L147.499 15.9997L146.799 14.5997C136.799 -3.70031 110.199 -2.80031 101.499 16.1997Z" fill="#FFC700"/>
<path d="M100.899 16.5998L101.199 15.9998C105.299 7.09985 113.899 1.29985 123.699 0.999846C133.499 0.699846 142.499 5.79984 147.199 14.3998L148.299 16.2998L100.899 16.5998ZM124.599 1.79985C124.299 1.79985 123.999 1.79985 123.599 1.79985C114.199 2.09985 106.199 7.29985 102.099 15.7998L146.799 15.5998L146.399 14.7998C141.899 6.59985 133.799 1.79985 124.599 1.79985Z" fill="black"/>
</svg>
