<svg width="28" height="32" viewBox="0 0 28 32" fill="none" xmlns="http://www.w3.org/2000/svg">
<path d="M15.1002 4.30012C15.2002 4.30012 15.3002 4.30014 15.3002 4.20014C15.3002 3.20014 15.2002 -1.09987 21.8002 3.00013C28.6002 7.20013 29.4002 11.3001 25.3002 11.9001C25.3002 11.9001 25.2002 11.9001 25.2002 12.0001C26.5002 20.9001 11.7002 33.6001 9.50021 30.6001C8.40021 29.1001 13.3002 25.2001 13.7002 24.7001C14.0002 24.4001 15.1002 22.5001 14.9002 22.0001C14.9002 22.0001 5.70021 33.7001 3.70021 29.0001C2.90021 27.0001 6.30021 25.5001 8.30021 22.6001C9.10021 21.4001 11.2002 19.0001 11.0002 18.9001C11.0002 18.9001 5.60021 25.3001 3.80021 26.3001C1.30021 27.8001 -0.999794 24.0001 4.50021 19.2001C5.30021 18.6001 5.90021 17.8001 6.40021 16.9001L8.50021 13.4001C8.50021 13.4001 8.50021 13.4001 8.40021 13.4001C7.10021 13.8001 3.70021 19.3001 1.80021 15.7001C0.600205 13.3001 8.0002 1.60012 15.1002 4.30012Z" fill="white"/>
<path d="M1.40011 26.1C2.00011 26.9 3.0001 27.1 4.0001 26.5C4.9001 25.9 6.7001 24.1 8.3001 22.3L8.20011 22.4C7.50011 23.5 6.5001 24.4 5.6001 25.2C4.2001 26.5 2.9001 27.7 3.5001 29C3.8001 29.7 4.30011 30.1 4.90011 30.2C7.60011 30.6 12.7001 24.8 14.4001 22.7C14.1001 23.3 13.7001 24.1 13.5001 24.3C13.4001 24.4 13.2001 24.5 13.0001 24.8C10.6001 26.9 8.3001 29.3 9.3001 30.5C9.6001 30.9 10.1001 31.2 11.2001 31C11.5001 30.9 11.8001 30.8 12.2001 30.7C17.2001 28.7 26.3001 19.2 25.4001 12C26.8001 11.8 27.7001 11.1 27.9001 10.1C28.3001 8.10004 26.1001 5.40004 21.8001 2.70004C19.2001 1.10004 17.3001 0.600044 16.1001 1.20004C15.0001 1.80004 14.9001 3.30003 14.9001 4.00003C10.4001 2.40003 6.4001 6.40004 4.8001 8.10004C2.3001 11 0.800103 14.5 1.6001 15.8C2.0001 16.6 2.50011 17 3.20011 17.1C4.50011 17.3 5.9001 15.9 7.1001 14.8C7.3001 14.6 7.6001 14.3 7.8001 14.1L6.20011 16.7C5.70011 17.6 5.1001 18.3 4.3001 18.9C1.0001 22 0.400106 24.8 1.40011 26.1ZM8.6001 22.7C8.9001 22.3 9.4001 21.7 9.8001 21.1C10.8001 19.8 11.2001 19.3 11.3001 19L14.8001 21.7V21.8C14.7001 21.9 8.1001 30.3 5.1001 29.9C4.6001 29.8 4.3001 29.5 4.0001 28.9C3.6001 27.8 4.6001 26.8 6.0001 25.6C6.80011 24.8 7.8001 23.8 8.6001 22.7ZM4.70011 19.4C5.50011 18.8 6.10011 18 6.70011 17.1L8.70011 13.8C9.70011 14.4 11.1001 15 12.7001 14.9C13.0001 14.9 13.2001 14.8 13.5001 14.8C14.7001 14.5 15.9001 13.8 16.8001 12.7C16.9001 12.6 16.9001 12.5 16.8001 12.4C16.7001 12.3 16.6001 12.3 16.5001 12.4C15.4001 13.7 14.1001 14.3 12.7001 14.4C11.1001 14.5 9.7001 13.9 8.8001 13.3C8.8001 13.3 8.70011 13.3 8.70011 13.2C8.10011 12.8 7.70011 12.5 7.70011 12.5C7.60011 12.4 7.50011 12.4 7.40011 12.5C7.30011 12.6 7.30011 12.7 7.40011 12.8C7.40011 12.8 7.7001 13 8.1001 13.3C7.8001 13.5 7.40011 13.9 6.90011 14.4C5.80011 15.5 4.50011 16.8 3.40011 16.6C2.90011 16.5 2.50011 16.2 2.20011 15.5C1.60011 14.5 2.80011 11.3 5.40011 8.40003C6.90011 6.70003 10.8001 2.80003 15.1001 4.40003H15.2001C15.8001 4.60003 17.4001 5.30003 19.1001 7.00003C19.2001 7.10003 19.2001 7.10004 19.3001 7.10004C19.3001 7.10004 19.4001 7.10003 19.4001 7.00003C19.5001 6.90003 19.5001 6.80004 19.4001 6.70004C17.8001 5.00004 16.2001 4.30004 15.5001 4.10004V4.00003C15.5001 3.40003 15.5001 2.10004 16.5001 1.60004C17.5001 1.10004 19.3001 1.60004 21.7001 3.10004C26.5001 6.10004 27.8001 8.60003 27.6001 10C27.4001 11 26.2001 11.4 25.3001 11.6C24.9001 11.2 24.0001 10.4 23.0001 9.70004C22.9001 9.60004 22.7001 9.70002 22.7001 9.80002C22.6001 9.90002 22.7001 10.1 22.8001 10.1C24.0001 10.9 24.9001 11.8 25.2001 12C25.7001 16.1 22.8001 20.6 20.9001 23C18.2001 26.4 14.8001 29.3 12.2001 30.3C11.5001 30.6 10.3001 30.9 9.90011 30.3C9.10011 29.2 12.5001 26.2 13.6001 25.2C13.9001 24.9 14.1001 24.8 14.1001 24.7C14.3001 24.5 15.4001 22.7 15.4001 21.9L16.6001 22.8C16.7001 22.8 16.7001 22.9 16.8001 22.8C16.9001 22.8 16.9001 22.8 16.9001 22.7C17.0001 22.6 17.0001 22.5 16.9001 22.4L9.5001 16.8C9.4001 16.7 9.30011 16.7 9.20011 16.8C9.10011 16.9 9.10011 17 9.20011 17.1L11.0001 18.5C10.6001 18.9 5.60011 24.9 3.90011 25.9C3.10011 26.4 2.30011 26.3 1.90011 25.7C0.900106 24.7 1.50011 22.2 4.70011 19.4Z" fill="black"/>
</svg>
