<svg width="164" height="108" viewBox="0 0 164 108" fill="none" xmlns="http://www.w3.org/2000/svg">
<path d="M147.4 85.8C152.2 87.9 157.9 83.8 161.9 78.8C167.2 68 125.5 11 111.4 7.79996C96.4001 4.49996 101.4 28.7 101.4 28.7L120.2 46.2C120.2 46.3 137.9 86.7 147.4 85.8Z" fill="#7FFFD4" stroke="#1C1C1B" stroke-width="2.1063" stroke-miterlimit="10" stroke-linecap="round" stroke-linejoin="round"/>
<path d="M16.5002 85.8C11.7002 87.9 6.0002 83.8 2.0002 78.8C-3.2998 68 38.4002 11 52.5002 7.79996C67.5002 4.49996 62.5002 28.7 62.5002 28.7L43.7002 46.2C43.7002 46.3 26.0002 86.7 16.5002 85.8Z" fill="#7FFFD4" stroke="#1C1C1B" stroke-width="2.1063" stroke-miterlimit="10" stroke-linecap="round" stroke-linejoin="round"/>
<path d="M110.5 7.60019L98.7001 3.2002C98.7001 3.2002 87.0001 3.40018 80.0001 3.40018C73.0001 3.40018 65.9001 1.7002 65.9001 1.7002L53.2001 7.50018C53.2001 7.50018 26.6001 78.4002 32.5001 94.4002C35.3001 102 59.3001 106.9 76.6001 106.9C93.9001 106.9 126.9 103.1 130.4 95.4002C138 78.1002 110.5 7.60019 110.5 7.60019Z" fill="#7FFFD4" stroke="#1C1C1B" stroke-width="2.1063" stroke-miterlimit="10" stroke-linecap="round" stroke-linejoin="round"/>
</svg>
