<svg width="112" height="54" viewBox="0 0 112 54" fill="none" xmlns="http://www.w3.org/2000/svg">
<path d="M110.1 46.8C110.1 46.8 96.3002 55 68.5002 52.4L63.3002 23.6H48.0002L42.8002 52.4C15.0002 55 1.2002 46.8 1.2002 46.8L7.7002 1.5C17.3002 2.7 33.0002 4 55.7002 4C78.4002 4 94.1002 2.7 103.7 1.5L110.1 46.8Z" fill="white" stroke="black" stroke-width="2" stroke-miterlimit="10"/>
<path d="M45.0001 37.2001L42.3001 52.0001C14.5001 54.6001 1.6001 46.6001 1.6001 46.6001L3.6001 32.5001C3.6001 32.4001 20.6001 39.4001 45.0001 37.2001Z" fill="pink" stroke="black" stroke-width="0.75" stroke-miterlimit="10"/>
<path d="M66.3003 37.8L68.9003 52C96.7003 54.6 109.6 46.6 109.6 46.6L107.6 32.5C107.6 32.5 90.7003 40 66.3003 37.8Z" fill="#3B6485" stroke="black" stroke-width="0.75" stroke-miterlimit="10"/>
<path d="M66.6001 39.7002C66.6001 39.7002 66.8001 39.7002 67.1001 39.8002" stroke="black" stroke-width="1.392" stroke-miterlimit="10" stroke-linecap="round"/>
<path d="M70.7002 40.1C77.8002 40.5 92.6002 40.5 105.6 35.5" stroke="black" stroke-width="1.392" stroke-miterlimit="10" stroke-linecap="round" stroke-dasharray="0.93 0.93"/>
<path d="M107.4 34.7C107.5 34.6 107.7 34.6 107.8 34.5" stroke="black" stroke-width="1.392" stroke-miterlimit="10" stroke-linecap="round"/>
<path d="M44.7002 39.7002C44.7002 39.7002 44.5002 39.7002 44.2002 39.8002" stroke="black" stroke-width="1.392" stroke-miterlimit="10" stroke-linecap="round"/>
<path d="M40.5004 40.1001C33.4004 40.5001 18.5004 40.6001 5.40039 35.6001" stroke="black" stroke-width="1.392" stroke-miterlimit="10" stroke-linecap="round" stroke-dasharray="0.94 0.94"/>
<path d="M3.6002 34.9002C3.5002 34.8002 3.3002 34.8002 3.2002 34.7002" stroke="black" stroke-width="1.392" stroke-miterlimit="10" stroke-linecap="round"/>
</svg>
