<svg width="19" height="38" viewBox="0 0 19 38" fill="none" xmlns="http://www.w3.org/2000/svg">
<path d="M12.7998 1.1001H6.2998V4.30008H12.7998V1.1001Z" fill="#BF89DB"/>
<path d="M13 4.49991H6V0.899902H13V4.49991ZM6.5 3.99991H12.6V1.19992H6.5V3.99991Z" fill="black"/>
<path d="M17.0001 37.3003H2.1001C1.3001 37.3003 0.600098 36.6003 0.600098 35.8003V5.30029C0.600098 4.50029 1.3001 3.80029 2.1001 3.80029H17.0001C17.8001 3.80029 18.5001 4.50029 18.5001 5.30029V35.8003C18.5001 36.6003 17.8001 37.3003 17.0001 37.3003Z" fill="#BF89DB"/>
<path d="M16.9999 37.5001H2.0999C1.0999 37.5001 0.399902 36.7001 0.399902 35.8001V5.30008C0.399902 4.30008 1.1999 3.6001 2.0999 3.6001H16.9999C17.9999 3.6001 18.6999 4.40008 18.6999 5.30008V35.8001C18.6999 36.7001 17.9999 37.5001 16.9999 37.5001ZM2.0999 4.00009C1.3999 4.00009 0.799904 4.60008 0.799904 5.30008V35.8001C0.799904 36.5001 1.3999 37.1001 2.0999 37.1001H16.9999C17.6999 37.1001 18.2999 36.5001 18.2999 35.8001V5.30008C18.2999 4.60008 17.6999 4.00009 16.9999 4.00009H2.0999Z" fill="black"/>
<path d="M15.1 35.6002H4C3.2 35.6002 2.5 34.9002 2.5 34.1002V7.2002C2.5 6.4002 3.2 5.7002 4 5.7002H15.1C15.9 5.7002 16.6 6.4002 16.6 7.2002V34.1002C16.6 35.0002 15.9 35.6002 15.1 35.6002Z" fill="#8BC8CA"/>
<path d="M15.0998 35.8H3.9998C2.9998 35.8 2.2998 35 2.2998 34.1V7.20001C2.2998 6.20001 3.0998 5.5 3.9998 5.5H15.0998C16.0998 5.5 16.7998 6.30001 16.7998 7.20001V34.1C16.7998 35.1 15.9998 35.8 15.0998 35.8ZM3.9998 5.89999C3.2998 5.89999 2.6998 6.50001 2.6998 7.20001V34.1C2.6998 34.8 3.2998 35.4 3.9998 35.4H15.0998C15.7998 35.4 16.3998 34.8 16.3998 34.1V7.20001C16.3998 6.50001 15.7998 5.89999 15.0998 5.89999H3.9998Z" fill="black"/>
<path d="M15.1 35.6001H4C3.2 35.6001 2.5 34.9001 2.5 34.1001V33.6001C2.5 32.8001 3.2 32.1001 4 32.1001H15.1C15.9 32.1001 16.6 32.8001 16.6 33.6001V34.1001C16.6 35.0001 15.9 35.6001 15.1 35.6001Z" fill="#FF330D"/>
<path d="M15.0998 35.7999H3.9998C2.9998 35.7999 2.2998 34.9999 2.2998 34.0999V33.5999C2.2998 32.5999 3.0998 31.8999 3.9998 31.8999H15.0998C16.0998 31.8999 16.7998 32.6999 16.7998 33.5999V34.0999C16.7998 35.0999 15.9998 35.7999 15.0998 35.7999ZM3.9998 32.2999C3.2998 32.2999 2.6998 32.8999 2.6998 33.5999V34.0999C2.6998 34.7999 3.2998 35.3999 3.9998 35.3999H15.0998C15.7998 35.3999 16.3998 34.7999 16.3998 34.0999V33.5999C16.3998 32.8999 15.7998 32.2999 15.0998 32.2999H3.9998Z" fill="black"/>
</svg>
