<svg width="30" height="39" viewBox="0 0 37 39" fill="none" xmlns="http://www.w3.org/2000/svg">
<path d="M33.1004 28C33.0004 28 32.9004 27.9 32.9004 27.8L33.1004 5.20001C33.1004 5.10001 33.2004 5 33.3004 5C33.4004 5 33.5004 5.10001 33.5004 5.20001L33.3004 27.8C33.2004 27.9 33.2004 28 33.1004 28Z" fill="black"/>
<path d="M30.9004 6.99982L33.3004 5.99982L35.7004 7.09982L33.4004 1.2998L30.9004 6.99982Z" fill="#BF89DB"/>
<path d="M36.0006 7.3999L33.3006 6.19992L30.6006 7.2999L33.3006 0.899902L36.0006 7.3999ZM33.3006 5.8999L35.4006 6.7999L33.3006 1.7999L31.1006 6.7999L33.3006 5.8999Z" fill="black"/>
<path d="M5.0004 36.5C4.9004 36.5 4.90039 36.5 4.90039 36.4C4.90039 36.3 4.9004 36.2 5.0004 36.2L30.8004 29.5C30.9004 29.5 31.0004 29.5 31.0004 29.6C31.0004 29.7 31.0004 29.8 30.9004 29.8L5.0004 36.5Z" fill="black"/>
<path d="M7.30017 38.3001L5.80017 36.1001L6.30017 33.6001L1.2002 37.1001L7.30017 38.3001Z" fill="#FFA300"/>
<path d="M7.70041 38.5002L0.900391 37.2002L6.6004 33.2002L6.0004 36.1002L7.70041 38.5002ZM1.6004 37.0002L7.0004 38.0002L5.70041 36.1002L6.20041 33.8002L1.6004 37.0002Z" fill="black"/>
<path d="M36.6019 28.4483C36.7067 26.3521 35.0923 24.5679 32.9962 24.4631C30.9 24.3583 29.1158 25.9727 29.011 28.0688C28.9062 30.165 30.5206 31.9492 32.6167 32.054C34.7129 32.1588 36.4971 30.5445 36.6019 28.4483Z" fill="#B743FF"/>
<path d="M32.7999 32.2C32.6999 32.2 32.7 32.2 32.6 32.2C30.4 32.1 28.7999 30.2 28.8999 28.1C28.9999 27.1 29.4 26.1 30.2 25.4C31 24.7 32 24.3 33 24.4C35.2 24.5 36.8 26.4 36.7 28.5C36.6 29.5 36.1999 30.5 35.3999 31.2C34.6999 31.9 33.7999 32.2 32.7999 32.2ZM32.7999 24.7C31.8999 24.7 30.9999 25 30.3999 25.6C29.6999 26.2 29.3 27.1 29.2 28.1C29.1 30.1 30.6 31.8 32.6 31.9C33.6 32 34.5 31.6 35.2 31C35.9 30.4 36.2999 29.5 36.3999 28.5C36.4999 26.5 35 24.8 33 24.7C32.9 24.7 32.7999 24.7 32.7999 24.7Z" fill="black"/>
</svg>
