<svg width="22" height="22" viewBox="0 0 22 22" fill="none" xmlns="http://www.w3.org/2000/svg">
<path d="M10.6941 21.6129C16.3826 21.5639 20.9544 16.9128 20.9054 11.2242C20.8565 5.53571 16.2053 0.963943 10.5168 1.01291C4.82827 1.06187 0.256489 5.71302 0.305453 11.4016C0.354416 17.0901 5.00558 21.6619 10.6941 21.6129Z" fill="#FFC700"/>
<path d="M10.6001 21.7998C4.8001 21.7998 0.100098 17.0998 0.100098 11.3998C0.100098 5.59981 4.70009 0.799805 10.5001 0.799805C13.3001 0.799805 16.0001 1.7998 18.0001 3.7998C20.0001 5.7998 21.1001 8.39983 21.1001 11.1998C21.1001 13.9998 20.1001 16.6998 18.1001 18.6998C16.1001 20.5998 13.5001 21.6998 10.6001 21.7998ZM0.500092 11.2998C0.500092 16.7998 5.1001 21.2998 10.6001 21.2998H10.7001C13.4001 21.2998 15.9001 20.1998 17.8001 18.2998C19.7001 16.3998 20.7001 13.7998 20.7001 11.0998C20.7001 8.39982 19.6001 5.89982 17.7001 3.99982C15.8001 2.09982 13.2001 1.09982 10.5001 1.09982C5.00009 1.19982 0.500092 5.7998 0.500092 11.2998Z" fill="black"/>
<path d="M6.50049 12.6001C7.60506 12.6001 8.50049 11.0331 8.50049 9.1001C8.50049 7.1671 7.60506 5.6001 6.50049 5.6001C5.39592 5.6001 4.50049 7.1671 4.50049 9.1001C4.50049 11.0331 5.39592 12.6001 6.50049 12.6001Z" fill="black"/>
<path d="M6.50029 12.7999C5.30029 12.7999 4.30029 11.1999 4.30029 9.09991C4.30029 6.99991 5.30029 5.3999 6.50029 5.3999C7.70029 5.3999 8.70029 6.99991 8.70029 9.09991C8.80029 11.1999 7.80029 12.7999 6.50029 12.7999ZM6.50029 5.69992C5.50029 5.69992 4.70029 7.19991 4.70029 8.99991C4.70029 10.7999 5.50029 12.2999 6.50029 12.2999C7.50029 12.2999 8.30029 10.7999 8.30029 8.99991C8.30029 7.29991 7.50029 5.69992 6.50029 5.69992Z" fill="black"/>
<path d="M14.7007 12.6001C15.8053 12.6001 16.7007 11.0331 16.7007 9.1001C16.7007 7.1671 15.8053 5.6001 14.7007 5.6001C13.5961 5.6001 12.7007 7.1671 12.7007 9.1001C12.7007 11.0331 13.5961 12.6001 14.7007 12.6001Z" fill="black"/>
<path d="M14.7005 12.7999C13.5005 12.7999 12.5005 11.1999 12.5005 9.09991C12.5005 6.99991 13.5005 5.3999 14.7005 5.3999C15.9005 5.3999 16.9005 6.99991 16.9005 9.09991C16.9005 11.1999 15.9005 12.7999 14.7005 12.7999ZM14.7005 5.69992C13.7005 5.69992 12.9005 7.19991 12.9005 8.99991C12.9005 10.7999 13.7005 12.2999 14.7005 12.2999C15.7005 12.2999 16.5005 10.7999 16.5005 8.99991C16.5005 7.29991 15.7005 5.69992 14.7005 5.69992Z" fill="black"/>
<path d="M14.1004 16.7001C14.0004 16.7001 13.9004 16.6001 13.9004 16.5001C13.6004 14.9001 12.2004 13.7001 10.5004 13.7001C8.9004 13.7001 7.6004 14.9001 7.3004 16.5001C7.3004 16.6001 7.2004 16.7001 7.1004 16.7001C7.0004 16.7001 6.90039 16.6001 6.90039 16.5001C7.20039 14.7001 8.7004 13.4001 10.5004 13.4001C12.3004 13.3001 14.0004 14.7001 14.3004 16.5001C14.3004 16.6001 14.2004 16.7001 14.1004 16.7001Z" fill="black"/>
</svg>
